<?xml version="1.0" standalone="no"?>
<!DOCTYPE svg PUBLIC "-//W3C//DTD SVG 1.1//EN" "http://www.w3.org/Graphics/SVG/1.1/DTD/svg11.dtd" >
<svg xmlns="http://www.w3.org/2000/svg" xmlns:xlink="http://www.w3.org/1999/xlink" version="1.1">
<metadata>
Created by FontForge 20170731 at Sun Jan  1 08:10:56 2023
 By Aleksey,,,
Copyright (C) 2021 by Sora Sagano.
</metadata>
<defs>
<font id="Nacelle-Black" horiz-adv-x="1355" >
  <font-face 
    font-family="Nacelle Black"
    font-weight="900"
    font-stretch="normal"
    units-per-em="2048"
    panose-1="0 0 0 0 0 0 0 0 0 0"
    ascent="1577"
    descent="-471"
    x-height="1106"
    cap-height="1495"
    bbox="-328 -471 2769 2095"
    underline-thickness="102"
    underline-position="-358"
    unicode-range="U+0020-FB02"
  />
<missing-glyph horiz-adv-x="1024" 
d="M840 1577v-2048h-650v2048h650zM342 -330h340v68h-209l143 96h66v68h-340v-68h143l-143 -96v-68zM342 -51h340v231h-340v-231zM342 303h340v232h-205v-115h70v47h67v-96h-204v164h-68v-232zM342 580h340v204h-68v-135h-272v-69zM342 696h205v144h135v67h-340v-67h135v-76
h-135v-68zM342 963h340v69h-135v144h-205v-213zM342 1229h340v67h-135v76h135v68h-338v-68h133v-76h-135v-67zM410 16v97h204v-97h-204zM410 1032v74h67v-74h-67z" />
    <glyph glyph-name="fi" unicode="fi" horiz-adv-x="1515" 
d="M631 1524q83 0 184 -11v-286q-133 13 -177 -2.5t-44 -89.5v-29h203v-320h-203v-786h-451v786h-116v320h116q0 53 2 86q6 81 32 139t80.5 103t147.5 67.5t226 22.5zM950 1475q0 95 67.5 162t162.5 67t162 -67t67 -162t-67 -162.5t-162 -67.5t-162.5 67.5t-67.5 162.5z
M954 0v1106h451v-1106h-451z" />
    <glyph glyph-name="fl" unicode="fl" horiz-adv-x="1562" 
d="M631 1524q83 0 184 -11v-286q-133 13 -177 -2.5t-44 -89.5v-29h203v-320h-203v-786h-451v786h-116v320h116q0 53 2 86q6 81 32 139t80.5 103t147.5 67.5t226 22.5zM946 453v1042h451v-1038q0 -104 26 -133t111 -21v-305q-99 -18 -248 -18q-178 0 -253 65.5t-83 212.5
q-4 57 -4 195z" />
    <glyph glyph-name=".notdef" horiz-adv-x="1024" 
d="M840 1577v-2048h-650v2048h650zM342 -330h340v68h-209l143 96h66v68h-340v-68h143l-143 -96v-68zM342 -51h340v231h-340v-231zM342 303h340v232h-205v-115h70v47h67v-96h-204v164h-68v-232zM342 580h340v204h-68v-135h-272v-69zM342 696h205v144h135v67h-340v-67h135v-76
h-135v-68zM342 963h340v69h-135v144h-205v-213zM342 1229h340v67h-135v76h135v68h-338v-68h133v-76h-135v-67zM410 16v97h204v-97h-204zM410 1032v74h67v-74h-67z" />
    <glyph glyph-name=".null" horiz-adv-x="0" 
 />
    <glyph glyph-name="nonmarkingreturn" horiz-adv-x="682" 
 />
    <glyph glyph-name="space" unicode=" " horiz-adv-x="503" 
 />
    <glyph glyph-name="space" unicode="&#xa0;" horiz-adv-x="503" 
 />
    <glyph glyph-name="exclam" unicode="!" horiz-adv-x="786" 
d="M621 1495l-25 -963h-406l-24 963h455zM164 201q0 95 67 162t162 67t162.5 -67t67.5 -162t-67.5 -162.5t-162.5 -67.5t-162 67.5t-67 162.5z" />
    <glyph glyph-name="quotedbl" unicode="&#x22;" horiz-adv-x="1093" 
d="M496 1516l-33 -746h-344l-33 746h410zM598 1516h410l-33 -746h-344z" />
    <glyph glyph-name="numbersign" unicode="#" horiz-adv-x="1392" 
d="M1237 1495l-70 -346h154v-266h-207l-51 -250h197v-266h-250l-74 -367h-311l73 367h-157l-74 -367h-311l73 367h-157v266h211l51 250h-201v266h254l70 346h311l-70 -346h158l70 346h311zM594 633h158l51 250h-158z" />
    <glyph glyph-name="dollar" unicode="$" horiz-adv-x="1392" 
d="M489 1638h410v-196q178 -38 272.5 -148t100.5 -288h-430q-10 112 -164 112q-123 0 -123 -61q0 -45 40 -66.5t130 -34.5q307 -47 452.5 -155t145.5 -307q0 -97 -35 -176t-96.5 -131.5t-134 -85.5t-158.5 -50v-192h-410v202q-178 45 -286 158t-115 293h430
q17 -133 201 -133q75 0 114 22.5t39 57.5q0 42 -36 61t-115 33q-161 29 -270.5 65t-190.5 90t-118.5 131t-37.5 183q0 166 106.5 272.5t278.5 145.5v198z" />
    <glyph glyph-name="percent" unicode="%" horiz-adv-x="1921" 
d="M1657 1495l-1039 -1495h-354l1039 1495h354zM53 1137q0 176 107 281.5t293 105.5q196 0 307.5 -105t111.5 -282q0 -176 -111.5 -281.5t-307.5 -105.5q-185 0 -292.5 106t-107.5 281zM344 1137q0 -133 109 -133q108 0 108 133t-108 133q-109 0 -109 -133zM1049 358
q0 176 106.5 281.5t292.5 105.5q196 0 308 -105t112 -282q0 -175 -112 -281t-308 -106q-185 0 -292 106t-107 281zM1339 358q0 -133 109 -133q108 0 108 133q0 134 -108 134q-109 0 -109 -134z" />
    <glyph glyph-name="ampersand" unicode="&#x26;" horiz-adv-x="1609" 
d="M262 1145q0 171 124.5 275t340.5 104q229 0 349 -92t120 -258q0 -69 -17.5 -124.5t-56 -103.5t-86 -86.5t-121.5 -87.5l164 -176q54 97 78 211h369q-2 -128 -49 -265t-131 -231l288 -311h-504l-77 88q-167 -117 -396 -117q-129 0 -234 27.5t-184 82t-122 143.5t-43 206
q0 278 319 401q-68 88 -99.5 159.5t-31.5 154.5zM524 473q0 -71 47.5 -108t130.5 -37q59 0 117 22l-217 242q-78 -54 -78 -119zM641 1139q0 -71 88 -164q109 78 109 160q0 43 -23.5 68.5t-73.5 25.5q-46 0 -73 -24.5t-27 -65.5z" />
    <glyph glyph-name="quotesingle" unicode="'" horiz-adv-x="581" 
d="M496 1516l-33 -746h-344l-33 746h410z" />
    <glyph glyph-name="parenleft" unicode="(" horiz-adv-x="798" 
d="M743 1536q-278 -478 -278 -922q0 -443 278 -921h-385q-140 228 -201 445.5t-61 475.5t61 476t201 446h385z" />
    <glyph glyph-name="parenright" unicode=")" horiz-adv-x="798" 
d="M440 1536q140 -228 201 -446t61 -476t-61 -475.5t-201 -445.5h-385q279 480 279 921q0 442 -279 922h385z" />
    <glyph glyph-name="asterisk" unicode="*" horiz-adv-x="1392" 
d="M70 709l116 354l346 -137l-22 368h373l-23 -368l346 137l117 -354l-365 -95l259 -299l-299 -225l-222 338l-223 -338l-299 225l258 299z" />
    <glyph glyph-name="plus" unicode="+" horiz-adv-x="1249" 
d="M778 1163v-370h348v-287h-348v-371h-307v371h-348v287h348v370h307z" />
    <glyph glyph-name="comma" unicode="," horiz-adv-x="655" 
d="M530 426v-111l-172 -639h-368l147 750h393z" />
    <glyph glyph-name="hyphen" unicode="-" horiz-adv-x="745" 
d="M680 774v-348h-614v348h614z" />
    <glyph glyph-name="period" unicode="." horiz-adv-x="655" 
d="M328 -29q-101 0 -173.5 72.5t-72.5 173.5t72.5 173.5t173.5 72.5t173 -72.5t72 -173.5t-72 -173.5t-173 -72.5z" />
    <glyph glyph-name="slash" unicode="/" horiz-adv-x="811" 
d="M831 1597l-514 -1761h-337l514 1761h337z" />
    <glyph glyph-name="zero" unicode="0" horiz-adv-x="1351" 
d="M676 1126q-52 0 -81.5 -33t-44.5 -115.5t-15 -229.5q0 -215 32 -297t109 -82q51 0 80.5 33.5t44 116.5t14.5 229q0 216 -31.5 297t-107.5 81zM63 748q0 190 32.5 330.5t104.5 242t190.5 152.5t285.5 51q166 0 284.5 -51t189.5 -152.5t103.5 -242t32.5 -330.5
q0 -189 -32.5 -329.5t-103.5 -242.5t-189.5 -153.5t-284.5 -51.5q-167 0 -286 51.5t-190 153.5t-104 242.5t-33 329.5z" />
    <glyph glyph-name="one" unicode="1" horiz-adv-x="1351" 
d="M1102 1495v-1495h-459v936h-395v246l416 313h438z" />
    <glyph glyph-name="two" unicode="2" horiz-adv-x="1351" 
d="M709 1524q261 0 414 -130.5t153 -349.5q0 -120 -45 -217t-163 -204t-327 -232l-71 -43h592v-348h-1162v426l217 135q212 132 311 204t138 123.5t39 110.5q0 69 -33.5 98t-99.5 29q-61 0 -99 -34.5t-41 -108.5h-450q6 269 165.5 405t461.5 136z" />
    <glyph glyph-name="three" unicode="3" horiz-adv-x="1351" 
d="M680 1524q129 0 235 -25.5t184.5 -75.5t121.5 -131t43 -186q0 -122 -76 -212.5t-211 -137.5q293 -76 293 -357q0 -214 -157.5 -321t-424.5 -107q-297 0 -449 114.5t-169 385.5h450q13 -123 144 -123q69 0 102 26.5t33 88.5q0 120 -203 123l-162 2v323l162 2
q99 2 148 29.5t49 95.5q0 109 -127 109q-114 0 -121 -123h-451q1 108 33.5 196.5t100.5 157.5t183 107.5t269 38.5z" />
    <glyph glyph-name="four" unicode="4" horiz-adv-x="1351" 
d="M635 1495h491v-770h185v-389h-185v-336h-458v336h-631v407zM420 725h248v307z" />
    <glyph glyph-name="five" unicode="5" horiz-adv-x="1351" 
d="M1217 1495v-389h-629l-33 -277q83 170 301 170q203 0 322.5 -131t119.5 -356q0 -167 -76.5 -290.5t-211 -187t-308.5 -63.5q-308 0 -461.5 115.5t-160.5 364.5h450q6 -49 42.5 -80t99.5 -31q68 0 111.5 45t43.5 115q0 69 -44 115.5t-111 46.5q-59 0 -93.5 -29.5
t-54.5 -87.5h-432l101 950h1024z" />
    <glyph glyph-name="six" unicode="6" horiz-adv-x="1351" 
d="M717 1524q278 0 412 -108.5t153 -352.5h-451q-6 43 -33.5 63.5t-86.5 20.5q-74 0 -113 -76t-43 -266q60 174 301 174q201 0 319.5 -132.5t118.5 -336.5q0 -132 -44.5 -235.5t-123.5 -169.5t-183.5 -100t-227.5 -34q-119 0 -213.5 23t-175 78t-134 142t-83 220t-29.5 307
q0 396 149.5 589.5t487.5 193.5zM567 500q0 -69 36 -110.5t93 -41.5q58 0 96.5 39.5t38.5 104.5q0 67 -34.5 109t-98.5 42q-60 0 -95.5 -38.5t-35.5 -104.5z" />
    <glyph glyph-name="seven" unicode="7" horiz-adv-x="1351" 
d="M1294 1069q-373 -456 -571 -1069h-520q202 574 557 1106h-676v389h1210v-426z" />
    <glyph glyph-name="eight" unicode="8" horiz-adv-x="1351" 
d="M682 1524q256 0 409.5 -114.5t153.5 -299.5q0 -241 -231 -334q55 -21 101.5 -51t88.5 -74.5t66 -108t24 -139.5q0 -142 -81.5 -242t-218 -147t-316.5 -47q-621 0 -621 453q0 69 22.5 128.5t62 102.5t84.5 73t98 50q-205 86 -205 330q0 188 152.5 304t410.5 116zM528 465
q0 -60 41 -90.5t111 -30.5q73 0 109 31.5t36 87.5q0 60 -43 93.5t-106 33.5q-64 0 -106 -33t-42 -92zM563 1042q0 -55 33.5 -80.5t87.5 -25.5q55 0 89 25t34 79q0 50 -34 78.5t-89 28.5q-50 0 -85.5 -30t-35.5 -75z" />
    <glyph glyph-name="nine" unicode="9" horiz-adv-x="1351" 
d="M635 -29q-252 0 -389.5 116t-155.5 366h451q6 -54 33.5 -79.5t87.5 -25.5q75 0 106.5 82.5t28.5 282.5q-25 -100 -101 -148.5t-180 -48.5q-139 0 -244 65t-159 172.5t-54 239.5q0 129 44.5 231.5t123 167.5t183 98.5t227.5 33.5q125 0 221 -23t175.5 -77.5t130.5 -142.5
t78.5 -219.5t27.5 -307.5q0 -142 -20 -257.5t-66 -215t-118 -167t-181 -105.5t-250 -38zM520 999q0 -66 35.5 -106.5t97.5 -40.5q61 0 96 40t35 103q0 70 -36 111t-93 41q-59 0 -97 -39t-38 -109z" />
    <glyph glyph-name="colon" unicode=":" horiz-adv-x="655" 
d="M328 -29q-101 0 -173.5 72.5t-72.5 173.5t72.5 173.5t173.5 72.5t173 -72.5t72 -173.5t-72 -173.5t-173 -72.5zM82 889q0 101 72.5 173.5t173.5 72.5t173 -72.5t72 -173.5t-72 -173.5t-173 -72.5t-173.5 72.5t-72.5 173.5z" />
    <glyph glyph-name="semicolon" unicode=";" horiz-adv-x="655" 
d="M328 643q-101 0 -173.5 72.5t-72.5 173.5t72.5 173.5t173.5 72.5t173 -72.5t72 -173.5t-72 -173.5t-173 -72.5zM-10 -324l147 750h393v-111l-172 -639h-368z" />
    <glyph glyph-name="less" unicode="&#x3c;" horiz-adv-x="1249" 
d="M1122 1096v-314l-581 -227l581 -227v-318l-964 383v320z" />
    <glyph glyph-name="equal" unicode="=" horiz-adv-x="1249" 
d="M1116 1028v-287h-983v287h983zM133 270v287h983v-287h-983z" />
    <glyph glyph-name="greater" unicode="&#x3e;" horiz-adv-x="1249" 
d="M127 -10v313l582 227l-582 228v317l965 -383v-319z" />
    <glyph glyph-name="question" unicode="?" horiz-adv-x="1308" 
d="M647 1524q116 0 217 -27.5t180 -81t124.5 -139t45.5 -193.5q0 -143 -68.5 -240.5t-211.5 -176.5q-49 -27 -68 -57.5t-26 -76.5h-418q-4 146 40.5 219.5t176.5 141.5q57 28 80.5 57.5t23.5 67.5q0 108 -110 108q-52 0 -86.5 -33t-34.5 -102h-471q0 262 153 397.5
t453 135.5zM401 201q0 95 67.5 162t162.5 67t162 -67t67 -162t-67 -162.5t-162 -67.5t-162.5 67.5t-67.5 162.5z" />
    <glyph glyph-name="at" unicode="@" horiz-adv-x="2068" 
d="M1180 102v172q-18 -86 -80.5 -139t-159.5 -53q-387 0 -387 491q0 224 93.5 358t287.5 134q99 0 168 -50t80 -122l12 151h313v-696h11q74 0 118 24t69.5 93.5t25.5 193.5q0 295 -167.5 451t-498.5 156t-519 -188t-188 -505q0 -179 54 -313.5t152.5 -216.5t227.5 -122
t289 -40q161 0 310 46.5t251 111.5v-272q-78 -57 -237.5 -100.5t-323.5 -43.5q-163 0 -305 29.5t-270.5 100t-219.5 177.5t-144.5 271t-53.5 372q0 206 66 380t189 301t308.5 198.5t413.5 71.5q185 0 339.5 -44.5t264 -123.5t185 -188t111.5 -237t36 -272
q0 -268 -128 -412.5t-355 -144.5h-338zM930 573q0 -213 127 -213q58 0 87.5 44t29.5 118v103q0 79 -31 120t-88 41q-125 0 -125 -213z" />
    <glyph glyph-name="A" unicode="A" horiz-adv-x="1597" 
d="M1112 1495l473 -1495h-483l-72 233h-469l-76 -233h-473l486 1495h614zM637 582h326l-160 512z" />
    <glyph glyph-name="B" unicode="B" horiz-adv-x="1480" 
d="M743 1495q129 0 201 -8q210 -26 310 -121.5t100 -259.5q0 -125 -58.5 -213.5t-173.5 -132.5q293 -66 293 -354q0 -74 -24 -136.5t-64.5 -106.5t-96.5 -77t-117 -51.5t-128 -26.5q-72 -8 -229 -8h-633v1495h620zM561 360h209q174 0 174 115q0 54 -43.5 85.5t-130.5 31.5
h-209v-232zM561 907h191q71 0 111 30.5t40 82.5q0 53 -38.5 84t-114.5 31h-189v-228z" />
    <glyph glyph-name="C" unicode="C" horiz-adv-x="1589" 
d="M829 1524q336 0 508.5 -153.5t198.5 -432.5h-451q-22 94 -89.5 141t-161.5 47q-289 0 -289 -366q0 -391 286 -391q206 0 250 188h451q-57 -586 -713 -586q-365 0 -555 190.5t-190 575.5q0 138 26.5 255.5t85 216.5t145.5 168t213.5 108t284.5 39z" />
    <glyph glyph-name="D" unicode="D" horiz-adv-x="1619" 
d="M727 1495q108 0 180 -8q107 -12 193.5 -36.5t172.5 -77t143.5 -129t93.5 -198.5t36 -280t-35.5 -284t-94.5 -208t-143 -139.5t-173 -86t-193 -40.5q-72 -8 -180 -8h-604v1495h604zM582 389h176q166 0 241.5 82t75.5 289q0 194 -73.5 270t-243.5 76h-176v-717z" />
    <glyph glyph-name="E" unicode="E" 
d="M1276 1495v-389h-694v-182h649v-349h-649v-186h706v-389h-1165v1495h1153z" />
    <glyph glyph-name="F" unicode="F" horiz-adv-x="1374" 
d="M1317 1495v-389h-735v-223h690v-389h-690v-494h-459v1495h1194z" />
    <glyph glyph-name="G" unicode="G" horiz-adv-x="1673" 
d="M545 758q0 -225 76.5 -317.5t240.5 -92.5q106 0 172 40t66 118v24h-266v324h725v-854h-357l-55 176q-10 -74 -49 -113q-37 -39 -132 -65.5t-198 -26.5q-694 0 -694 766q0 174 43.5 314t133 247.5t239 166.5t348.5 59q665 0 716 -553h-450q-38 155 -266 155
q-69 0 -120.5 -18t-91.5 -59t-60.5 -114t-20.5 -177z" />
    <glyph glyph-name="H" unicode="H" horiz-adv-x="1679" 
d="M1556 1495v-1495h-458v555h-516v-555h-459v1495h459v-551h516v551h458z" />
    <glyph glyph-name="I" unicode="I" horiz-adv-x="704" 
d="M582 1495v-1495h-459v1495h459z" />
    <glyph glyph-name="J" unicode="J" horiz-adv-x="1396" 
d="M1303 694q0 -94 -7 -215q-15 -270 -162 -389t-468 -119q-335 0 -483.5 148.5t-157.5 462.5h450q11 -123 58.5 -168t136.5 -45q92 0 133 46.5t41 139.5v940h459v-801z" />
    <glyph glyph-name="K" unicode="K" horiz-adv-x="1583" 
d="M1577 1495l-455 -584l453 -911h-551l-266 543l-176 -219v-324h-459v1495h459v-653l469 653h526z" />
    <glyph glyph-name="L" unicode="L" horiz-adv-x="1288" 
d="M582 1495v-1106h665v-389h-1124v1495h459z" />
    <glyph glyph-name="M" unicode="M" horiz-adv-x="1918" 
d="M1796 1495v-1495h-432v676q0 248 2 377q-26 -165 -72 -377l-139 -676h-399l-138 676q-62 311 -71 366q2 -125 2 -366v-676h-426v1495h676q125 -560 176 -852q49 280 174 852h647z" />
    <glyph glyph-name="N" unicode="N" horiz-adv-x="1613" 
d="M1491 1495v-1495h-530l-279 582q-45 93 -139 311q12 -155 12 -350v-543h-432v1495h528l269 -543q91 -186 151 -329q-12 203 -12 370v502h432z" />
    <glyph glyph-name="O" unicode="O" horiz-adv-x="1671" 
d="M545 748q0 -379 291 -379q145 0 217.5 92.5t72.5 286.5t-72.5 286t-217.5 92t-218 -92t-73 -286zM74 748q0 388 193.5 582t568.5 194t568 -194t193 -582q0 -389 -193 -583t-568 -194t-568.5 194.5t-193.5 582.5z" />
    <glyph glyph-name="P" unicode="P" horiz-adv-x="1452" 
d="M768 1495q126 0 221 -10q62 -7 122 -28t119 -62t103 -97t71.5 -139.5t27.5 -183.5q0 -108 -27.5 -196.5t-71.5 -145.5t-103.5 -98.5t-118.5 -61.5t-122 -27q-114 -12 -221 -12h-186v-434h-459v1495h645zM582 823h196q183 0 183 142q0 76 -46 108.5t-137 32.5h-196v-283z
" />
    <glyph glyph-name="Q" unicode="Q" horiz-adv-x="1671" 
d="M1597 748q0 -375 -213 -549l201 -273l-381 -254q-241 291 -250 300.5t-16 9.5q-24 0 -59.5 -5.5t-42.5 -5.5q-375 0 -568.5 194.5t-193.5 582.5t193.5 582t568.5 194t568 -194t193 -582zM545 748q0 -379 291 -379q146 0 218 89.5t72 289.5q0 194 -72.5 286t-217.5 92
t-218 -92t-73 -286z" />
    <glyph glyph-name="R" unicode="R" horiz-adv-x="1519" 
d="M1485 18v-18h-537q-3 26 -12.5 130.5t-17.5 178.5q-9 92 -43 122t-134 30h-159v-461h-459v1495h663q127 0 222 -10q64 -8 120 -23.5t114.5 -48t99.5 -77.5t67.5 -116.5t26.5 -160.5q0 -280 -260 -379q189 -72 206 -268q17 -189 45 -326zM582 829h204q179 0 179 146
q0 151 -179 151h-204v-297z" />
    <glyph glyph-name="S" unicode="S" horiz-adv-x="1425" 
d="M713 1524q297 0 459 -130.5t174 -381.5h-451q-9 61 -60 98t-139 37q-68 0 -106.5 -21.5t-38.5 -58.5q0 -50 48.5 -72.5t195.5 -46.5q293 -48 439 -163t146 -326q0 -106 -37 -190.5t-98.5 -139.5t-148 -91t-179.5 -51.5t-198 -15.5q-306 0 -486 132.5t-190 394.5h451
q10 -73 72.5 -111.5t156.5 -38.5q85 0 135.5 23.5t50.5 62.5q0 32 -21 54t-80.5 42t-168.5 37q-131 21 -230.5 57t-176.5 93t-116 142t-36 196q3 116 54 207t138.5 147.5t199 85.5t241.5 29z" />
    <glyph glyph-name="T" unicode="T" horiz-adv-x="1425" 
d="M1376 1495v-389h-434v-1106h-459v1106h-434v389h1327z" />
    <glyph glyph-name="U" unicode="U" horiz-adv-x="1564" 
d="M1464 682q0 -115 -6 -199q-9 -123 -50 -215t-119.5 -160t-204 -102.5t-296.5 -34.5q-336 0 -500 131.5t-182 380.5q-6 84 -6 199v813h459v-848q0 -155 54.5 -216.5t174.5 -61.5q122 0 176 62.5t54 215.5v848h446v-813z" />
    <glyph glyph-name="V" unicode="V" horiz-adv-x="1642" 
d="M1634 1495l-530 -1495h-565l-531 1495h524l304 -1030l305 1030h493z" />
    <glyph glyph-name="W" unicode="W" horiz-adv-x="2144" 
d="M2124 1495l-334 -1495h-582l-98 608q-26 176 -33 242q-17 -140 -35 -240l-106 -610h-596l-320 1495h494l109 -664q27 -173 43 -315q17 151 53 315l133 644h471l129 -644q34 -184 49 -286q14 135 43 286l131 664h449z" />
    <glyph glyph-name="X" unicode="X" horiz-adv-x="1640" 
d="M1599 1495l-473 -745l482 -750h-559l-232 395l-211 -395h-573l495 731l-465 764h560l206 -412l218 412h552z" />
    <glyph glyph-name="Y" unicode="Y" horiz-adv-x="1585" 
d="M1606 1495l-584 -942v-553h-459v553l-583 942h542l281 -504l272 504h531z" />
    <glyph glyph-name="Z" unicode="Z" horiz-adv-x="1484" 
d="M1409 1495v-326l-711 -780h705v-389h-1321v319l715 787h-701v389h1313z" />
    <glyph glyph-name="bracketleft" unicode="[" horiz-adv-x="927" 
d="M205 1516h661v-287h-334v-1229h334v-287h-661v1803z" />
    <glyph glyph-name="backslash" unicode="\" horiz-adv-x="813" 
d="M-20 1597h337l517 -1761h-338z" />
    <glyph glyph-name="bracketright" unicode="]" horiz-adv-x="927" 
d="M723 1516v-1803h-662v287h334v1229h-334v287h662z" />
    <glyph glyph-name="asciicircum" unicode="^" horiz-adv-x="1249" 
d="M774 1516l387 -760h-332l-196 389l-197 -389h-325l387 760h276z" />
    <glyph glyph-name="underscore" unicode="_" horiz-adv-x="1024" 
d="M1004 -45v-307h-984v307h984z" />
    <glyph glyph-name="grave" unicode="`" horiz-adv-x="1024" 
d="M72 1581v16l499 -8l326 -323v-17h-405z" />
    <glyph glyph-name="a" unicode="a" horiz-adv-x="1255" 
d="M627 1135q140 0 241 -25t160 -73t88 -107.5t35 -138.5q6 -83 6 -187v-604h-405l-27 180q-12 -125 -75.5 -167t-217.5 -42q-176 0 -278.5 86.5t-102.5 251.5q0 182 142 270.5t440 88.5h90v57q0 53 -26.5 77.5t-84.5 24.5q-60 0 -86.5 -24.5t-31.5 -73.5h-410
q5 197 144 301.5t399 104.5zM461 358q0 -79 119 -79q48 0 95.5 31t47.5 81v60q-78 4 -132 -1t-81 -19t-38 -31.5t-11 -41.5z" />
    <glyph glyph-name="b" unicode="b" horiz-adv-x="1415" 
d="M561 1495v-539q38 98 119.5 138.5t206.5 40.5q242 0 358.5 -148.5t116.5 -423.5q0 -296 -129 -444t-363 -148q-59 0 -106 7.5t-92.5 26.5t-79 54.5t-53.5 87.5l-15 -147h-413v1495h450zM561 514q0 -223 152 -223q82 0 119.5 67.5t37.5 206.5q0 120 -39.5 185t-113.5 65
q-78 0 -117 -57t-39 -185v-59z" />
    <glyph glyph-name="c" unicode="c" horiz-adv-x="1243" 
d="M653 1135q124 0 218 -22t155.5 -60t103 -96.5t61 -123.5t28.5 -149h-449q-8 131 -119 131q-71 0 -99 -63.5t-28 -194.5q0 -141 27.5 -203.5t101.5 -62.5q49 0 80.5 36t36.5 95h449q-24 -219 -164 -335t-420 -116q-300 0 -441 145.5t-141 432.5q0 134 33 238.5t103 183.5
t187 121.5t277 42.5z" />
    <glyph glyph-name="d" unicode="d" horiz-adv-x="1415" 
d="M1305 1495v-1495h-414l-31 168q-35 -109 -118 -153t-214 -44q-242 0 -358.5 148.5t-116.5 423.5q0 296 129 444t363 148q54 0 97.5 -7t85.5 -25t74 -51.5t52 -82.5v526h451zM545 541q0 -120 39.5 -185t113.5 -65q78 0 117 56.5t39 184.5v60q0 223 -152 223
q-82 0 -119.5 -67.5t-37.5 -206.5z" />
    <glyph glyph-name="e" unicode="e" horiz-adv-x="1245" 
d="M651 1135q141 0 247 -40.5t171.5 -115.5t98 -175.5t32.5 -225.5q0 -74 -6 -132h-702q26 -163 147 -163q92 0 121 84h424q-26 -189 -169 -292.5t-380 -103.5q-287 0 -434.5 143t-147.5 429q0 129 35.5 235.5t106.5 187t187 125t269 44.5zM494 688h282q-23 135 -141 135
q-116 0 -141 -135z" />
    <glyph glyph-name="f" unicode="f" horiz-adv-x="843" 
d="M631 1524q83 0 184 -11v-286q-133 13 -177 -2.5t-44 -89.5v-29h203v-320h-203v-786h-451v786h-116v320h116q0 53 2 86q6 81 32 139t80.5 103t147.5 67.5t226 22.5z" />
    <glyph glyph-name="g" unicode="g" horiz-adv-x="1382" 
d="M1272 299q0 -152 -2 -211q-17 -506 -608 -506q-573 0 -605 402h424q3 -36 49 -59t121 -23q170 0 170 178v196q-21 -125 -95.5 -174t-209.5 -49q-243 0 -359 141.5t-116 391.5q0 272 126.5 410.5t364.5 138.5q61 0 107 -8.5t88.5 -30.5t70 -64.5t40.5 -105.5l20 180h414
v-807zM512 596q0 -109 38.5 -166t108.5 -57q78 0 119 61t43 168q-3 105 -46 163t-111 58q-152 0 -152 -227z" />
    <glyph glyph-name="h" unicode="h" horiz-adv-x="1380" 
d="M561 1495v-577q29 119 101.5 168t205.5 49q360 0 404 -289q10 -69 10 -207v-639h-451v659q0 136 -120 136q-150 0 -150 -209v-586h-450v1495h450z" />
    <glyph glyph-name="i" unicode="i" horiz-adv-x="671" 
d="M561 1106v-1106h-450v1106h450zM106 1475q0 95 67.5 162t162.5 67t162 -67t67 -162t-67 -162.5t-162 -67.5t-162.5 67.5t-67.5 162.5z" />
    <glyph glyph-name="j" unicode="j" horiz-adv-x="671" 
d="M561 45q0 -57 -4 -131q-4 -65 -21 -113.5t-54 -91.5t-95.5 -70t-149 -42t-212.5 -15q-74 0 -123 8v287q75 -7 119 1.5t63 41t23 64t4 98.5v1024h450v-1061zM106 1475q0 95 67.5 162t162.5 67t162 -67t67 -162t-67 -162.5t-162 -67.5t-162.5 67.5t-67.5 162.5z" />
    <glyph glyph-name="k" unicode="k" horiz-adv-x="1376" 
d="M1358 1106l-363 -418l389 -688h-534l-209 397l-80 -80v-317h-450v1495h450v-799l324 410h473z" />
    <glyph glyph-name="l" unicode="l" horiz-adv-x="718" 
d="M553 457q0 -104 26 -133t111 -21v-305q-99 -18 -248 -18q-178 0 -253 65.5t-83 212.5q-4 57 -4 195v1042h451v-1038z" />
    <glyph glyph-name="m" unicode="m" horiz-adv-x="2060" 
d="M905 1135q240 0 318 -181q18 55 54.5 92.5t87.5 56t102.5 25.5t117.5 7q170 0 258 -76.5t109 -200.5q10 -69 10 -207v-651h-451v610q0 106 -25 145.5t-100 39.5q-73 0 -98.5 -49t-25.5 -156v-590h-451v610q0 106 -25 145.5t-100 39.5q-73 0 -99 -49t-26 -156v-590h-450
v1106h413l21 -178q11 42 30.5 75t41.5 54t53 36.5t57 23.5t62 12t59 5t57 1z" />
    <glyph glyph-name="n" unicode="n" horiz-adv-x="1380" 
d="M868 1135q360 0 404 -289q10 -69 10 -207v-639h-451v659q0 136 -120 136q-150 0 -150 -209v-586h-450v1106h413l21 -178q31 115 109.5 161t213.5 46z" />
    <glyph glyph-name="o" unicode="o" 
d="M524 553q0 -147 37 -204.5t117 -57.5t116.5 57.5t36.5 204.5t-36.5 204.5t-116.5 57.5t-117 -57.5t-37 -204.5zM53 553q0 133 38 239t113.5 183t195.5 118.5t278 41.5t278 -41.5t195.5 -118.5t113.5 -183t38 -239q0 -271 -157 -426.5t-468 -155.5t-468 155.5t-157 426.5z
" />
    <glyph glyph-name="p" unicode="p" horiz-adv-x="1415" 
d="M561 -389h-450v1495h413l31 -168q35 109 118 153t214 44q242 0 358.5 -148.5t116.5 -423.5q0 -296 -129 -444t-363 -148q-54 0 -97.5 7t-85.5 25t-74 51.5t-52 82.5v-526zM561 514q0 -223 152 -223q82 0 119.5 67.5t37.5 206.5q0 120 -39.5 185t-113.5 65q-78 0 -117 -57
t-39 -185v-59z" />
    <glyph glyph-name="q" unicode="q" horiz-adv-x="1415" 
d="M854 -389v539q-38 -98 -119.5 -138.5t-206.5 -40.5q-242 0 -358.5 148.5t-116.5 423.5q0 296 129 444t363 148q115 0 197 -33.5t124 -118.5l25 123h414v-1495h-451zM545 541q0 -120 39.5 -185t113.5 -65q78 0 117 56.5t39 184.5v60q0 223 -152 223q-82 0 -119.5 -67.5
t-37.5 -206.5z" />
    <glyph glyph-name="r" unicode="r" horiz-adv-x="962" 
d="M854 1135q72 0 115 -11v-346q-223 26 -315.5 -47.5t-92.5 -265.5v-465h-450v1106h413l21 -219q21 140 97 194t212 54z" />
    <glyph glyph-name="s" unicode="s" horiz-adv-x="1175" 
d="M590 1135q130 0 224.5 -25.5t151.5 -73.5t86 -111t35 -145h-411q-6 45 -29 64.5t-65 19.5q-35 0 -58.5 -16t-23.5 -43q0 -24 11 -37.5t49 -26t112 -22.5q227 -30 341.5 -117t114.5 -252q0 -99 -43 -174t-118.5 -119t-170 -65t-206.5 -21q-256 0 -386 89.5t-153 275.5h424
q9 -94 123 -94q50 0 75 16.5t25 44.5q0 52 -159 76q-257 37 -363 122t-106 257t141 274.5t379 102.5z" />
    <glyph glyph-name="t" unicode="t" horiz-adv-x="952" 
d="M666 428q0 -101 40.5 -129t178.5 -23v-286q-146 -19 -299 -19q-100 0 -170 18.5t-111.5 55.5t-61 85t-24.5 114q-4 63 -4 176v366h-174v320h174v303h451v-303h241v-320h-241v-358z" />
    <glyph glyph-name="u" unicode="u" 
d="M479 -29q-343 0 -387 289q-10 69 -10 207v639h450v-680q0 -65 30 -100t87 -35q146 0 146 209v606h450v-1106h-414l-20 178q-14 -65 -43.5 -107.5t-75.5 -63.5t-94.5 -28.5t-118.5 -7.5z" />
    <glyph glyph-name="v" unicode="v" horiz-adv-x="1335" 
d="M1354 1106l-451 -1106h-491l-435 1106h500l197 -668l203 668h477z" />
    <glyph glyph-name="w" unicode="w" horiz-adv-x="1806" 
d="M1798 1106l-293 -1106h-473q-85 282 -135 541q-44 -255 -123 -541h-473l-293 1106h473q56 -279 90 -643q43 216 150 614h389q92 -354 141 -614q39 336 109 641z" />
    <glyph glyph-name="x" unicode="x" horiz-adv-x="1335" 
d="M1311 1106l-365 -567l357 -539h-500l-144 264l-161 -264h-473l360 555l-346 551h491l140 -260l139 260h502z" />
    <glyph glyph-name="y" unicode="y" horiz-adv-x="1331" 
d="M899 0q-44 -108 -84 -178t-88 -122t-110 -79t-138.5 -39t-185.5 -12q-90 0 -156 10v318q77 -9 158 -9q59 0 85 10.5t38 37.5l-441 1169h519l178 -694l198 694h478z" />
    <glyph glyph-name="z" unicode="z" horiz-adv-x="1200" 
d="M1124 1106v-242l-456 -545h452v-319h-1050v231l460 555h-440v320h1034z" />
    <glyph glyph-name="braceleft" unicode="{" horiz-adv-x="901" 
d="M588 -287q-161 0 -260 60.5t-99 177.5q0 80 29 264q18 123 18 184q0 46 -39.5 70t-148.5 23v245q57 -1 95.5 5.5t58 20t27 29t7.5 37.5q0 62 -18 185q-29 184 -29 264q0 117 99 177.5t260 60.5h248v-287h-134q-78 0 -104.5 -11.5t-26.5 -50.5q0 -16 19 -133
q26 -171 26 -211q0 -87 -35.5 -135.5t-119.5 -66.5q83 -21 119 -74t36 -141q0 -62 -26 -211q-19 -117 -19 -134q0 -38 26.5 -49.5t104.5 -11.5h134v-287h-248z" />
    <glyph glyph-name="bar" unicode="|" horiz-adv-x="729" 
d="M528 1638v-2048h-327v2048h327z" />
    <glyph glyph-name="braceright" unicode="}" horiz-adv-x="901" 
d="M313 1516q161 0 260 -60.5t99 -177.5q0 -80 -29 -264q-18 -123 -18 -185q0 -22 7.5 -37.5t27 -29t58 -20t95.5 -5.5v-245q-109 1 -148.5 -23t-39.5 -70q0 -61 18 -184q29 -184 29 -264q0 -117 -99 -177.5t-260 -60.5h-247v287h133q78 0 104.5 11.5t26.5 49.5
q0 17 -19 134q-26 171 -26 211q0 87 35.5 135.5t119.5 66.5q-83 21 -119 74t-36 141q0 61 26 211q19 117 19 133q0 39 -26.5 50.5t-104.5 11.5h-133v287h247z" />
    <glyph glyph-name="asciitilde" unicode="~" horiz-adv-x="1249" 
d="M369 823q50 0 98 -11.5t145 -45.5q146 -53 211 -53q35 0 53 19.5t46 94.5l237 -73q-41 -111 -70 -172.5t-61.5 -97.5t-64 -46t-82.5 -10t-99.5 11.5t-144.5 45.5q-149 54 -211 54q-34 0 -51.5 -20t-46.5 -95l-238 74q41 110 70 172t62 97.5t64.5 45.5t82.5 10z" />
    <glyph glyph-name="exclamdown" unicode="&#xa1;" horiz-adv-x="786" 
d="M166 -410l24 963h406l25 -963h-455zM164 885q0 95 67 162t162 67t162.5 -67t67.5 -162t-67.5 -162.5t-162.5 -67.5t-162 67.5t-67 162.5z" />
    <glyph glyph-name="cent" unicode="&#xa2;" horiz-adv-x="1392" 
d="M879 1485v-185q113 -14 194.5 -52t129.5 -98t72.5 -130t33.5 -162h-449q-8 131 -129 131q-76 0 -106.5 -64t-30.5 -194q0 -142 30 -204t109 -62q55 0 88.5 37t38.5 94h449q-21 -184 -124.5 -295.5t-305.5 -142.5v-189h-308v187q-231 32 -339.5 174t-108.5 393
q0 499 448 573v189h308z" />
    <glyph glyph-name="sterling" unicode="&#xa3;" horiz-adv-x="1392" 
d="M705 1524q132 0 229.5 -20.5t164.5 -59.5t109 -103t62 -143.5t26 -187.5h-450q-4 68 -35.5 92t-95.5 24q-117 0 -117 -102q0 -48 27 -133h594v-287h-486q6 -27 6 -49q0 -108 -98 -166h670v-389h-1225v418q97 9 151 42.5t54 84.5q0 19 -12 59h-216v287h97q-33 108 -33 170
q0 208 154 335.5t424 127.5z" />
    <glyph glyph-name="currency" unicode="&#xa4;" 
d="M678 207q-112 0 -201 53l-164 -164l-157 158l163 164q-51 91 -51 198q0 108 51 199l-163 164l157 158l164 -164q89 53 201 53t201 -53l163 164l158 -158l-164 -164q51 -91 51 -199q0 -107 -51 -198l164 -164l-158 -158l-163 164q-89 -53 -201 -53zM524 616
q0 -63 45.5 -108t108.5 -45t108 45t45 108t-45 108.5t-108 45.5t-108.5 -45.5t-45.5 -108.5z" />
    <glyph glyph-name="yen" unicode="&#xa5;" horiz-adv-x="1392" 
d="M1386 1495l-325 -645h188v-287h-323v-76h323v-286h-323v-201h-459v201h-324v286h324v76h-324v287h189l-326 645h463l236 -614l229 614h452z" />
    <glyph glyph-name="brokenbar" unicode="&#xa6;" horiz-adv-x="729" 
d="M528 1638v-850h-327v850h327zM201 -410v850h327v-850h-327z" />
    <glyph glyph-name="section" unicode="&#xa7;" horiz-adv-x="1419" 
d="M705 1524q154 0 267 -30.5t180.5 -88.5t101.5 -133.5t40 -173.5h-430q-6 55 -49 82.5t-108 27.5q-58 0 -92.5 -16.5t-34.5 -48.5t39 -51t145 -43q215 -49 344 -118t183.5 -158t54.5 -212q0 -195 -181 -305q131 -101 131 -266q0 -182 -156.5 -295t-432.5 -113
q-154 0 -267 30.5t-181 88.5t-102 133.5t-40 173.5h430q6 -55 52.5 -82.5t113.5 -27.5q133 0 133 65q0 30 -44 50t-147 44q-318 73 -449.5 188t-131.5 300q0 202 182 305q-127 100 -127 266q0 183 153 295.5t423 112.5zM545 598q0 -61 52.5 -100.5t184.5 -75.5l13 -4
q79 18 79 90q0 61 -52.5 100.5t-184.5 75.5l-12 4q-80 -18 -80 -90z" />
    <glyph glyph-name="dieresis" unicode="&#xa8;" horiz-adv-x="1024" 
d="M254 1276q-83 0 -141 58t-58 141t58 140.5t141 57.5t141 -57.5t58 -140.5t-58 -141t-141 -58zM571 1475q0 83 58 140.5t141 57.5t141 -57.5t58 -140.5t-58 -141t-141 -58t-141 58t-58 141z" />
    <glyph glyph-name="copyright" unicode="&#xa9;" horiz-adv-x="1761" 
d="M895 1192q202 0 307 -100t125 -281h-342q-9 90 -96 90q-60 0 -84.5 -37.5t-24.5 -111.5q0 -158 111 -158q87 0 92 90h342q-23 -182 -131.5 -281.5t-312.5 -99.5q-218 0 -337.5 118t-119.5 329q0 200 123 321t348 121zM37 748q0 249 107.5 437.5t298.5 289t438 100.5
t437.5 -100.5t297 -289t106.5 -437.5q0 -187 -62 -342.5t-172.5 -262t-266 -165t-340.5 -58.5q-247 0 -438 100.5t-298.5 289.5t-107.5 438zM180 748q0 -315 189.5 -502t511.5 -187t511 186.5t189 502.5q0 315 -189 501.5t-511 186.5t-511.5 -186.5t-189.5 -501.5z" />
    <glyph glyph-name="guillemotleft" unicode="&#xab;" horiz-adv-x="1605" 
d="M1087 1036h449l-342 -483l342 -483h-449l-342 483zM111 553l342 483h448l-342 -483l342 -483h-448z" />
    <glyph glyph-name="logicalnot" unicode="&#xac;" horiz-adv-x="1249" 
d="M1059 901v-549h-307v262h-588v287h895z" />
    <glyph glyph-name="registered" unicode="&#xae;" horiz-adv-x="1024" 
d="M512 1565q189 0 309.5 -118.5t120.5 -311.5t-120.5 -311.5t-309.5 -118.5t-309.5 118.5t-120.5 311.5t120.5 311.5t309.5 118.5zM174 1135q0 -160 87.5 -250t250.5 -90t250.5 90t87.5 250t-87.5 250t-250.5 90t-250.5 -90t-87.5 -250zM336 948v398h192q172 0 172 -123
q0 -35 -23 -57.5t-61 -32.5q29 -6 42 -23.5t20 -50.5q8 -44 20 -86l21 -25h-152q-9 27 -20 82q-7 37 -41 37h-39v-119h-131zM467 1169h45q53 0 53 37q0 21 -12.5 29t-40.5 8h-45v-74z" />
    <glyph glyph-name="macron" unicode="&#xaf;" horiz-adv-x="1024" 
d="M860 1552v-258h-696v258h696z" />
    <glyph glyph-name="degree" unicode="&#xb0;" horiz-adv-x="778" 
d="M389 1526q129 0 220 -90t91 -217q0 -128 -91 -218t-220 -90t-220 90t-91 218q0 127 91 217t220 90zM291 1219q0 -43 28.5 -73t69.5 -30t69.5 30t28.5 73t-28.5 72.5t-69.5 29.5t-69.5 -29.5t-28.5 -72.5z" />
    <glyph glyph-name="plusminus" unicode="&#xb1;" horiz-adv-x="1249" 
d="M778 1143v-246h309v-287h-309v-250h-307v250h-309v287h309v246h307zM162 0v287h925v-287h-925z" />
    <glyph glyph-name="acute" unicode="&#xb4;" horiz-adv-x="1024" 
d="M979 1581l-420 -332h-405v17l325 323l500 8v-16z" />
    <glyph glyph-name="paragraph" unicode="&#xb6;" horiz-adv-x="1724" 
d="M1602 1495v-1720h-459v1331h-170v-1331h-459v839q-80 0 -115 2q-154 9 -237.5 126.5t-83.5 312.5t83.5 312t237.5 126q35 2 115 2h1088z" />
    <glyph glyph-name="periodcentered" unicode="&#xb7;" horiz-adv-x="655" 
d="M328 412q-101 0 -173.5 72t-72.5 173t72.5 173.5t173.5 72.5t173 -72.5t72 -173.5t-72 -173t-173 -72z" />
    <glyph glyph-name="cedilla" unicode="&#xb8;" horiz-adv-x="1024" 
d="M659 18l-41 -67q85 -15 126.5 -53t41.5 -107q0 -98 -96.5 -153.5t-249.5 -55.5q-112 0 -178 12v189q46 -10 82 -10q42 0 60 9.5t18 31.5q0 48 -105 39v26l84 139h258z" />
    <glyph glyph-name="guillemotright" unicode="&#xbb;" horiz-adv-x="1605" 
d="M518 1036l342 -483l-342 -483h-448l342 483l-342 483h448zM705 70l342 483l-342 483h448l342 -483l-342 -483h-448z" />
    <glyph glyph-name="questiondown" unicode="&#xbf;" horiz-adv-x="1165" 
d="M580 -430q-116 0 -217 27.5t-180 80.5t-125 138.5t-46 193.5q0 143 69 240.5t212 177.5q49 27 68 57t26 76h418q4 -146 -40.5 -219t-176.5 -141q-57 -29 -81 -58t-24 -67q0 -52 28 -80.5t83 -28.5q52 0 86.5 33t34.5 102h471q0 -262 -153 -397t-453 -135zM367 893
q0 95 67 162t162 67t162 -67t67 -162t-67 -162t-162 -67t-162 67t-67 162z" />
    <glyph glyph-name="Agrave" unicode="&#xc0;" horiz-adv-x="1597" 
d="M1112 1495l473 -1495h-483l-72 233h-469l-76 -233h-473l486 1495h614zM328 1917v16l561 -8l366 -303v-16h-446zM637 582h326l-160 512z" />
    <glyph glyph-name="Aacute" unicode="&#xc1;" horiz-adv-x="1597" 
d="M1112 1495l473 -1495h-483l-72 233h-469l-76 -233h-473l486 1495h614zM369 1606v16l366 303l561 8v-16l-481 -311h-446zM637 582h326l-160 512z" />
    <glyph glyph-name="Acircumflex" unicode="&#xc2;" horiz-adv-x="1597" 
d="M1112 1495l473 -1495h-483l-72 233h-469l-76 -233h-473l486 1495h614zM317 1591l291 359h363l291 -359h-377l-99 135l-94 -135h-375zM637 582h326l-160 512z" />
    <glyph glyph-name="Atilde" unicode="&#xc3;" horiz-adv-x="1597" 
d="M1112 1495l473 -1495h-483l-72 233h-469l-76 -233h-473l486 1495h614zM295 1677q54 136 92 199t75.5 84.5t100.5 21.5q84 0 213 -49q119 -45 178 -45q30 0 45 16t45 78l238 -73q-54 -136 -92 -199t-75.5 -84.5t-100.5 -21.5q-84 0 -213 49q-119 45 -178 45
q-31 0 -46.5 -16t-44.5 -78zM637 582h326l-160 512z" />
    <glyph glyph-name="Adieresis" unicode="&#xc4;" horiz-adv-x="1597" 
d="M1112 1495l473 -1495h-483l-72 233h-469l-76 -233h-473l486 1495h614zM324 1810q0 83 57.5 141t140.5 58t141 -58t58 -141t-58 -140.5t-141 -57.5t-140.5 57.5t-57.5 140.5zM637 582h326l-160 512zM856 1810q0 83 58 141t141 58t140.5 -58t57.5 -141t-57.5 -140.5
t-140.5 -57.5t-141 57.5t-58 140.5z" />
    <glyph glyph-name="Aring" unicode="&#xc5;" horiz-adv-x="1597" 
d="M1112 1495l473 -1495h-483l-72 233h-469l-76 -233h-473l486 1495h614zM444 1835q0 127 94 193.5t250 66.5t250.5 -66.5t94.5 -193.5t-94.5 -193.5t-250.5 -66.5t-250 66.5t-94 193.5zM637 582h326l-160 512zM717 1835q0 -84 71 -84q72 0 72 84t-72 84q-71 0 -71 -84z" />
    <glyph glyph-name="AE" unicode="&#xc6;" horiz-adv-x="2207" 
d="M2120 1495v-389h-752l31 -182h680v-349h-623l31 -186h653v-389h-1046l-45 274h-476l-116 -274h-432l661 1495h1434zM723 623h268l-76 456z" />
    <glyph glyph-name="Ccedilla" unicode="&#xc7;" horiz-adv-x="1589" 
d="M829 1524q336 0 508.5 -153.5t198.5 -432.5h-451q-22 94 -89.5 141t-161.5 47q-289 0 -289 -366q0 -391 286 -391q206 0 250 188h451q-51 -516 -567 -577l-19 -29q85 -15 126.5 -53t41.5 -107q0 -98 -96.5 -153.5t-249.5 -55.5q-112 0 -178 12v189q46 -10 82 -10
q42 0 60 9.5t18 31.5q0 48 -105 39v26l60 96q-631 60 -631 762q0 138 26.5 255.5t85 216.5t145.5 168t213.5 108t284.5 39z" />
    <glyph glyph-name="Egrave" unicode="&#xc8;" 
d="M1276 1495v-389h-694v-182h649v-349h-649v-186h706v-389h-1165v1495h1153zM256 1917v16l561 -8l367 -303v-16h-447z" />
    <glyph glyph-name="Eacute" unicode="&#xc9;" 
d="M1276 1495v-389h-694v-182h649v-349h-649v-186h706v-389h-1165v1495h1153zM297 1606v16l367 303l561 8v-16l-482 -311h-446z" />
    <glyph glyph-name="Ecircumflex" unicode="&#xca;" 
d="M1276 1495v-389h-694v-182h649v-349h-649v-186h706v-389h-1165v1495h1153zM246 1591l291 359h362l291 -359h-377l-98 135l-94 -135h-375z" />
    <glyph glyph-name="Edieresis" unicode="&#xcb;" 
d="M1276 1495v-389h-694v-182h649v-349h-649v-186h706v-389h-1165v1495h1153zM252 1810q0 83 58 141t141 58t140.5 -58t57.5 -141t-57.5 -140.5t-140.5 -57.5t-141 57.5t-58 140.5zM784 1810q0 83 58 141t141 58t141 -58t58 -141t-58 -140.5t-141 -57.5t-141 57.5t-58 140.5
z" />
    <glyph glyph-name="Igrave" unicode="&#xcc;" horiz-adv-x="704" 
d="M582 1495v-1495h-459v1495h459zM-109 1917v16l562 -8l366 -303v-16h-446z" />
    <glyph glyph-name="Iacute" unicode="&#xcd;" horiz-adv-x="704" 
d="M582 1495v-1495h-459v1495h459zM-68 1606v16l367 303l561 8v-16l-481 -311h-447z" />
    <glyph glyph-name="Icircumflex" unicode="&#xce;" horiz-adv-x="704" 
d="M582 1495v-1495h-459v1495h459zM-119 1591l291 359h363l290 -359h-376l-99 135l-94 -135h-375z" />
    <glyph glyph-name="Idieresis" unicode="&#xcf;" horiz-adv-x="704" 
d="M582 1495v-1495h-459v1495h459zM-113 1810q0 83 58 141t141 58t141 -58t58 -141t-58 -140.5t-141 -57.5t-141 57.5t-58 140.5zM420 1810q0 83 57.5 141t140.5 58t141 -58t58 -141t-58 -140.5t-141 -57.5t-140.5 57.5t-57.5 140.5z" />
    <glyph glyph-name="Eth" unicode="&#xd0;" horiz-adv-x="1679" 
d="M924 868v-258h-283v-221h176q166 0 242 82t76 289q0 193 -74 269.5t-244 76.5h-176v-238h283zM20 610v258h162v627h604q109 0 181 -8q107 -12 193.5 -36.5t172.5 -77t143.5 -129t93.5 -198.5t36 -280t-35.5 -284t-94.5 -208t-143 -139.5t-173 -86t-193 -40.5
q-72 -8 -181 -8h-604v610h-162z" />
    <glyph glyph-name="Ntilde" unicode="&#xd1;" horiz-adv-x="1613" 
d="M1491 1495v-1495h-530l-279 582q-45 93 -139 311q12 -155 12 -350v-543h-432v1495h528l269 -543q91 -186 151 -329q-12 203 -12 370v502h432zM348 1677q54 136 92 199t75.5 84.5t100.5 21.5q84 0 213 -49q119 -45 179 -45q30 0 45 16t45 78l237 -73q-54 -136 -92 -199
t-75.5 -84.5t-100.5 -21.5q-84 0 -213 49q-119 45 -178 45q-30 0 -45 -16t-45 -78z" />
    <glyph glyph-name="Ograve" unicode="&#xd2;" horiz-adv-x="1671" 
d="M545 748q0 -379 291 -379q145 0 217.5 92.5t72.5 286.5t-72.5 286t-217.5 92t-218 -92t-73 -286zM74 748q0 388 193.5 582t568.5 194t568 -194t193 -582q0 -389 -193 -583t-568 -194t-568.5 194.5t-193.5 582.5zM375 1917v16l561 -8l367 -303v-16h-447z" />
    <glyph glyph-name="Oacute" unicode="&#xd3;" horiz-adv-x="1671" 
d="M545 748q0 -379 291 -379q145 0 217.5 92.5t72.5 286.5t-72.5 286t-217.5 92t-218 -92t-73 -286zM74 748q0 388 193.5 582t568.5 194t568 -194t193 -582q0 -389 -193 -583t-568 -194t-568.5 194.5t-193.5 582.5zM416 1606v16l366 303l561 8v-16l-481 -311h-446z" />
    <glyph glyph-name="Ocircumflex" unicode="&#xd4;" horiz-adv-x="1671" 
d="M545 748q0 -379 291 -379q145 0 217.5 92.5t72.5 286.5t-72.5 286t-217.5 92t-218 -92t-73 -286zM74 748q0 388 193.5 582t568.5 194t568 -194t193 -582q0 -389 -193 -583t-568 -194t-568.5 194.5t-193.5 582.5zM365 1591l290 359h363l291 -359h-377l-98 135l-95 -135
h-374z" />
    <glyph glyph-name="Otilde" unicode="&#xd5;" horiz-adv-x="1671" 
d="M545 748q0 -379 291 -379q145 0 217.5 92.5t72.5 286.5t-72.5 286t-217.5 92t-218 -92t-73 -286zM74 748q0 388 193.5 582t568.5 194t568 -194t193 -582q0 -389 -193 -583t-568 -194t-568.5 194.5t-193.5 582.5zM342 1677q54 136 92 199t75.5 84.5t100.5 21.5
q84 0 213 -49q119 -45 178 -45q31 0 46.5 16t44.5 78l237 -73q-54 -136 -92 -199t-75.5 -84.5t-100.5 -21.5q-84 0 -213 49q-119 45 -178 45q-30 0 -45 -16t-45 -78z" />
    <glyph glyph-name="Odieresis" unicode="&#xd6;" horiz-adv-x="1671" 
d="M545 748q0 -379 291 -379q145 0 217.5 92.5t72.5 286.5t-72.5 286t-217.5 92t-218 -92t-73 -286zM74 748q0 388 193.5 582t568.5 194t568 -194t193 -582q0 -389 -193 -583t-568 -194t-568.5 194.5t-193.5 582.5zM371 1810q0 83 57.5 141t140.5 58t141 -58t58 -141
t-58 -140.5t-141 -57.5t-140.5 57.5t-57.5 140.5zM903 1810q0 83 58 141t141 58t140.5 -58t57.5 -141t-57.5 -140.5t-140.5 -57.5t-141 57.5t-58 140.5z" />
    <glyph glyph-name="multiply" unicode="&#xd7;" horiz-adv-x="1249" 
d="M918 1135l-291 -291l-293 291l-193 -193l293 -291l-293 -293l193 -192l293 293l291 -293l192 192l-483 486l-193 -193l193 -192l483 483z" />
    <glyph glyph-name="Oslash" unicode="&#xd8;" horiz-adv-x="1777" 
d="M1528 1530l184 -184l-174 -164q88 -178 88 -434q0 -388 -193.5 -582.5t-568.5 -194.5q-296 0 -479 121l-135 -127l-184 185l141 133q-105 181 -105 465q0 388 193.5 582t568.5 194q319 0 508 -142zM573 748q0 -60 9 -113l462 438q-67 53 -180 53q-145 0 -218 -92
t-73 -286zM713 403q58 -34 151 -34q291 0 291 379q0 46 -2 69z" />
    <glyph glyph-name="Ugrave" unicode="&#xd9;" horiz-adv-x="1564" 
d="M1464 682q0 -115 -6 -199q-9 -123 -50 -215t-119.5 -160t-204 -102.5t-296.5 -34.5q-336 0 -500 131.5t-182 380.5q-6 84 -6 199v813h459v-848q0 -155 54.5 -216.5t174.5 -61.5q122 0 176 62.5t54 215.5v848h446v-813zM328 1917v16l561 -8l366 -303v-16h-446z" />
    <glyph glyph-name="Uacute" unicode="&#xda;" horiz-adv-x="1564" 
d="M1464 682q0 -115 -6 -199q-9 -123 -50 -215t-119.5 -160t-204 -102.5t-296.5 -34.5q-336 0 -500 131.5t-182 380.5q-6 84 -6 199v813h459v-848q0 -155 54.5 -216.5t174.5 -61.5q122 0 176 62.5t54 215.5v848h446v-813zM369 1606v16l366 303l561 8v-16l-481 -311h-446z
" />
    <glyph glyph-name="Ucircumflex" unicode="&#xdb;" horiz-adv-x="1564" 
d="M1464 682q0 -115 -6 -199q-9 -123 -50 -215t-119.5 -160t-204 -102.5t-296.5 -34.5q-336 0 -500 131.5t-182 380.5q-6 84 -6 199v813h459v-848q0 -155 54.5 -216.5t174.5 -61.5q122 0 176 62.5t54 215.5v848h446v-813zM317 1591l291 359h363l291 -359h-377l-99 135
l-94 -135h-375z" />
    <glyph glyph-name="Udieresis" unicode="&#xdc;" horiz-adv-x="1564" 
d="M1464 682q0 -115 -6 -199q-9 -123 -50 -215t-119.5 -160t-204 -102.5t-296.5 -34.5q-336 0 -500 131.5t-182 380.5q-6 84 -6 199v813h459v-848q0 -155 54.5 -216.5t174.5 -61.5q122 0 176 62.5t54 215.5v848h446v-813zM324 1810q0 83 57.5 141t140.5 58t141 -58t58 -141
t-58 -140.5t-141 -57.5t-140.5 57.5t-57.5 140.5zM856 1810q0 83 58 141t141 58t140.5 -58t57.5 -141t-57.5 -140.5t-140.5 -57.5t-141 57.5t-58 140.5z" />
    <glyph glyph-name="Yacute" unicode="&#xdd;" horiz-adv-x="1585" 
d="M1606 1495l-584 -942v-553h-459v553l-583 942h542l281 -504l272 504h531zM373 1606v16l366 303l561 8v-16l-481 -311h-446z" />
    <glyph glyph-name="Thorn" unicode="&#xde;" horiz-adv-x="1464" 
d="M748 1307q116 0 221 -11q65 -8 127 -30t124 -64.5t108.5 -100.5t75 -144t28.5 -189q0 -111 -29 -202.5t-75 -151.5t-108 -104t-124 -65.5t-127 -29.5q-95 -10 -221 -10h-166v-205h-459v1495h459v-188h166zM582 594h176q106 0 154.5 34t48.5 128q0 92 -50.5 127t-152.5 35
h-176v-324z" />
    <glyph glyph-name="germandbls" unicode="&#xdf;" horiz-adv-x="1466" 
d="M748 1524q281 0 445.5 -108t164.5 -310q0 -95 -15 -124.5t-83 -72.5q-86 -57 -86 -104q0 -60 112 -187q88 -96 120 -158t32 -149q0 -166 -123 -253t-373 -87q-142 0 -283 41v312q119 -33 193 -33q115 0 115 69q0 29 -18.5 58.5t-71.5 87.5q-12 14 -40.5 43.5t-39.5 42
t-29.5 36.5t-26 41t-14 40.5t-6.5 48.5q0 65 38 117.5t122 103.5q26 17 26 45q0 70 -39 104.5t-127 34.5q-108 0 -144 -45t-36 -139v-979h-450v819q0 139 4 213q7 108 47.5 196t115.5 155t194.5 104t275.5 37z" />
    <glyph glyph-name="agrave" unicode="&#xe0;" horiz-adv-x="1255" 
d="M627 1135q140 0 241 -25t160 -73t88 -107.5t35 -138.5q6 -83 6 -187v-604h-405l-27 180q-12 -125 -75.5 -167t-217.5 -42q-176 0 -278.5 86.5t-102.5 251.5q0 182 142 270.5t440 88.5h90v57q0 53 -26.5 77.5t-84.5 24.5q-60 0 -86.5 -24.5t-31.5 -73.5h-410
q5 197 144 301.5t399 104.5zM195 1581v16l499 -8l326 -323v-17h-406zM461 358q0 -79 119 -79q48 0 95.5 31t47.5 81v60q-78 4 -132 -1t-81 -19t-38 -31.5t-11 -41.5z" />
    <glyph glyph-name="aacute" unicode="&#xe1;" horiz-adv-x="1255" 
d="M627 1135q140 0 241 -25t160 -73t88 -107.5t35 -138.5q6 -83 6 -187v-604h-405l-27 180q-12 -125 -75.5 -167t-217.5 -42q-176 0 -278.5 86.5t-102.5 251.5q0 182 142 270.5t440 88.5h90v57q0 53 -26.5 77.5t-84.5 24.5q-60 0 -86.5 -24.5t-31.5 -73.5h-410
q5 197 144 301.5t399 104.5zM276 1249v17l326 323l500 8v-16l-420 -332h-406zM461 358q0 -79 119 -79q48 0 95.5 31t47.5 81v60q-78 4 -132 -1t-81 -19t-38 -31.5t-11 -41.5z" />
    <glyph glyph-name="acircumflex" unicode="&#xe2;" horiz-adv-x="1255" 
d="M627 1135q140 0 241 -25t160 -73t88 -107.5t35 -138.5q6 -83 6 -187v-604h-405l-27 180q-12 -125 -75.5 -167t-217.5 -42q-176 0 -278.5 86.5t-102.5 251.5q0 182 142 270.5t440 88.5h90v57q0 53 -26.5 77.5t-84.5 24.5q-60 0 -86.5 -24.5t-31.5 -73.5h-410
q5 197 144 301.5t399 104.5zM164 1245l291 359h362l291 -359h-377l-98 135l-94 -135h-375zM461 358q0 -79 119 -79q48 0 95.5 31t47.5 81v60q-78 4 -132 -1t-81 -19t-38 -31.5t-11 -41.5z" />
    <glyph glyph-name="atilde" unicode="&#xe3;" horiz-adv-x="1255" 
d="M627 1135q140 0 241 -25t160 -73t88 -107.5t35 -138.5q6 -83 6 -187v-604h-405l-27 180q-12 -125 -75.5 -167t-217.5 -42q-176 0 -278.5 86.5t-102.5 251.5q0 182 142 270.5t440 88.5h90v57q0 53 -26.5 77.5t-84.5 24.5q-60 0 -86.5 -24.5t-31.5 -73.5h-410
q5 197 144 301.5t399 104.5zM141 1309q54 136 92 199t76 84.5t101 21.5q84 0 213 -49q119 -45 178 -45q30 0 45 16t45 78l237 -74q-54 -136 -92 -199t-75.5 -84.5t-100.5 -21.5q-84 0 -213 49q-119 45 -178 45q-30 0 -45 -16t-45 -78zM461 358q0 -79 119 -79q48 0 95.5 31
t47.5 81v60q-78 4 -132 -1t-81 -19t-38 -31.5t-11 -41.5z" />
    <glyph glyph-name="adieresis" unicode="&#xe4;" horiz-adv-x="1255" 
d="M627 1135q140 0 241 -25t160 -73t88 -107.5t35 -138.5q6 -83 6 -187v-604h-405l-27 180q-12 -125 -75.5 -167t-217.5 -42q-176 0 -278.5 86.5t-102.5 251.5q0 182 142 270.5t440 88.5h90v57q0 53 -26.5 77.5t-84.5 24.5q-60 0 -86.5 -24.5t-31.5 -73.5h-410
q5 197 144 301.5t399 104.5zM178 1475q0 83 58 140.5t141 57.5t140.5 -57.5t57.5 -140.5t-57.5 -141t-140.5 -58t-141 58t-58 141zM461 358q0 -79 119 -79q48 0 95.5 31t47.5 81v60q-78 4 -132 -1t-81 -19t-38 -31.5t-11 -41.5zM694 1475q0 83 58 140.5t141 57.5t141 -57.5
t58 -140.5t-58 -141t-141 -58t-141 58t-58 141z" />
    <glyph glyph-name="aring" unicode="&#xe5;" horiz-adv-x="1255" 
d="M627 1135q140 0 241 -25t160 -73t88 -107.5t35 -138.5q6 -83 6 -187v-604h-405l-27 180q-12 -125 -75.5 -167t-217.5 -42q-176 0 -278.5 86.5t-102.5 251.5q0 182 142 270.5t440 88.5h90v57q0 53 -26.5 77.5t-84.5 24.5q-60 0 -86.5 -24.5t-31.5 -73.5h-410
q5 197 144 301.5t399 104.5zM291 1481q0 127 94 193.5t250 66.5t250 -66.5t94 -193.5t-94 -193.5t-250 -66.5t-250 66.5t-94 193.5zM461 358q0 -79 119 -79q48 0 95.5 31t47.5 81v60q-78 4 -132 -1t-81 -19t-38 -31.5t-11 -41.5zM563 1481q0 -84 72 -84t72 84t-72 84
t-72 -84z" />
    <glyph glyph-name="ae" unicode="&#xe6;" horiz-adv-x="1939" 
d="M610 1135q231 0 351 -107q148 107 374 107q143 0 251.5 -40.5t175 -115.5t99.5 -175.5t33 -225.5q0 -64 -6 -123h-712q9 -94 44.5 -129t106.5 -35q107 0 127 88h424q-28 -196 -172 -302t-387 -106q-328 0 -469 181q-32 -100 -119.5 -140.5t-241.5 -40.5q-208 0 -323 81
t-115 245q0 371 578 371h110v41q0 61 -33.5 89.5t-107.5 28.5q-131 0 -141 -110h-389q5 202 143 310t399 108zM461 352q0 -40 29 -56.5t102 -16.5q64 0 105.5 29t41.5 83v51q-84 4 -141 -0.5t-86 -18t-40 -30.5t-11 -41zM1174 684h284q-20 131 -147 131q-63 0 -95 -29.5
t-42 -101.5z" />
    <glyph glyph-name="ccedilla" unicode="&#xe7;" horiz-adv-x="1243" 
d="M653 1135q124 0 218 -22t155.5 -60t103 -96.5t61 -123.5t28.5 -149h-449q-8 131 -119 131q-71 0 -99 -63.5t-28 -194.5q0 -141 27.5 -203.5t101.5 -62.5q49 0 80.5 36t36.5 95h449q-43 -386 -437 -440l-18 -31q85 -15 126.5 -53t41.5 -107q0 -98 -96.5 -153.5
t-249.5 -55.5q-112 0 -178 12v189q46 -10 81 -10q42 0 60 9.5t18 31.5q0 48 -104 39v26l59 98q-242 26 -355.5 169.5t-113.5 402.5q0 134 33 238.5t103 183.5t187 121.5t277 42.5z" />
    <glyph glyph-name="egrave" unicode="&#xe8;" horiz-adv-x="1245" 
d="M651 1135q141 0 247 -40.5t171.5 -115.5t98 -175.5t32.5 -225.5q0 -74 -6 -132h-702q26 -163 147 -163q92 0 121 84h424q-26 -189 -169 -292.5t-380 -103.5q-287 0 -434.5 143t-147.5 429q0 129 35.5 235.5t106.5 187t187 125t269 44.5zM201 1581v16l499 -8l326 -323v-17
h-405zM494 688h282q-23 135 -141 135q-116 0 -141 -135z" />
    <glyph glyph-name="eacute" unicode="&#xe9;" horiz-adv-x="1245" 
d="M651 1135q141 0 247 -40.5t171.5 -115.5t98 -175.5t32.5 -225.5q0 -74 -6 -132h-702q26 -163 147 -163q92 0 121 84h424q-26 -189 -169 -292.5t-380 -103.5q-287 0 -434.5 143t-147.5 429q0 129 35.5 235.5t106.5 187t187 125t269 44.5zM283 1249v17l325 323l500 8v-16
l-420 -332h-405zM494 688h282q-23 135 -141 135q-116 0 -141 -135z" />
    <glyph glyph-name="ecircumflex" unicode="&#xea;" horiz-adv-x="1245" 
d="M651 1135q141 0 247 -40.5t171.5 -115.5t98 -175.5t32.5 -225.5q0 -74 -6 -132h-702q26 -163 147 -163q92 0 121 84h424q-26 -189 -169 -292.5t-380 -103.5q-287 0 -434.5 143t-147.5 429q0 129 35.5 235.5t106.5 187t187 125t269 44.5zM170 1245l291 359h362l291 -359
h-377l-98 135l-94 -135h-375zM494 688h282q-23 135 -141 135q-116 0 -141 -135z" />
    <glyph glyph-name="edieresis" unicode="&#xeb;" horiz-adv-x="1245" 
d="M651 1135q141 0 247 -40.5t171.5 -115.5t98 -175.5t32.5 -225.5q0 -74 -6 -132h-702q26 -163 147 -163q92 0 121 84h424q-26 -189 -169 -292.5t-380 -103.5q-287 0 -434.5 143t-147.5 429q0 129 35.5 235.5t106.5 187t187 125t269 44.5zM184 1475q0 83 58 140.5t141 57.5
t141 -57.5t58 -140.5t-58 -141t-141 -58t-141 58t-58 141zM494 688h282q-23 135 -141 135q-116 0 -141 -135zM700 1475q0 83 58 140.5t141 57.5t141 -57.5t58 -140.5t-58 -141t-141 -58t-141 58t-58 141z" />
    <glyph glyph-name="igrave" unicode="&#xec;" horiz-adv-x="671" 
d="M561 1106v-1106h-450v1106h450zM-104 1581v16l499 -8l326 -323v-17h-406z" />
    <glyph glyph-name="iacute" unicode="&#xed;" horiz-adv-x="671" 
d="M561 1106v-1106h-450v1106h450zM-23 1249v17l326 323l500 8v-16l-420 -332h-406z" />
    <glyph glyph-name="icircumflex" unicode="&#xee;" horiz-adv-x="671" 
d="M561 1106v-1106h-450v1106h450zM-135 1245l291 359h362l291 -359h-377l-98 135l-94 -135h-375z" />
    <glyph glyph-name="idieresis" unicode="&#xef;" horiz-adv-x="671" 
d="M561 1106v-1106h-450v1106h450zM-121 1475q0 83 58 140.5t141 57.5t140.5 -57.5t57.5 -140.5t-57.5 -141t-140.5 -58t-141 58t-58 141zM395 1475q0 83 58 140.5t141 57.5t141 -57.5t58 -140.5t-58 -141t-141 -58t-141 58t-58 141z" />
    <glyph glyph-name="eth" unicode="&#xf0;" horiz-adv-x="1361" 
d="M446 1622q269 -62 449 -190l205 88l80 -164l-133 -60q233 -260 233 -688q0 -340 -158.5 -488.5t-490.5 -148.5q-129 0 -233.5 32.5t-182 97t-120 167.5t-42.5 238q0 103 19 185.5t55 139t82.5 96.5t107.5 62.5t124 32.5t137 10q188 0 251 -201q-20 93 -63.5 163
t-108.5 134l-215 -94l-80 164l136 59q-91 57 -209 82zM524 500q0 -114 38 -161.5t112 -47.5q143 0 143 213q0 110 -36.5 159.5t-108.5 49.5q-74 0 -111 -49.5t-37 -163.5z" />
    <glyph glyph-name="ntilde" unicode="&#xf1;" horiz-adv-x="1380" 
d="M868 1135q360 0 404 -289q10 -69 10 -207v-639h-451v659q0 136 -120 136q-150 0 -150 -209v-586h-450v1106h413l21 -178q31 115 109.5 161t213.5 46zM246 1309q54 136 92 199t75.5 84.5t100.5 21.5q84 0 213 -49q119 -45 178 -45q30 0 45 16t45 78l238 -74
q-54 -136 -92 -199t-75.5 -84.5t-100.5 -21.5q-84 0 -213 49q-119 45 -179 45q-30 0 -45 -16t-45 -78z" />
    <glyph glyph-name="ograve" unicode="&#xf2;" 
d="M524 553q0 -147 37 -204.5t117 -57.5t116.5 57.5t36.5 204.5t-36.5 204.5t-116.5 57.5t-117 -57.5t-37 -204.5zM53 553q0 133 38 239t113.5 183t195.5 118.5t278 41.5t278 -41.5t195.5 -118.5t113.5 -183t38 -239q0 -271 -157 -426.5t-468 -155.5t-468 155.5t-157 426.5z
M238 1561v16l499 -8l326 -324v-16h-406z" />
    <glyph glyph-name="oacute" unicode="&#xf3;" 
d="M524 553q0 -147 37 -204.5t117 -57.5t116.5 57.5t36.5 204.5t-36.5 204.5t-116.5 57.5t-117 -57.5t-37 -204.5zM53 553q0 133 38 239t113.5 183t195.5 118.5t278 41.5t278 -41.5t195.5 -118.5t113.5 -183t38 -239q0 -271 -157 -426.5t-468 -155.5t-468 155.5t-157 426.5z
M319 1229v16l326 324l500 8v-16l-420 -332h-406z" />
    <glyph glyph-name="ocircumflex" unicode="&#xf4;" 
d="M524 553q0 -147 37 -204.5t117 -57.5t116.5 57.5t36.5 204.5t-36.5 204.5t-116.5 57.5t-117 -57.5t-37 -204.5zM53 553q0 133 38 239t113.5 183t195.5 118.5t278 41.5t278 -41.5t195.5 -118.5t113.5 -183t38 -239q0 -271 -157 -426.5t-468 -155.5t-468 155.5t-157 426.5z
M207 1225l291 358h362l291 -358h-377l-98 135l-94 -135h-375z" />
    <glyph glyph-name="otilde" unicode="&#xf5;" 
d="M524 553q0 -147 37 -204.5t117 -57.5t116.5 57.5t36.5 204.5t-36.5 204.5t-116.5 57.5t-117 -57.5t-37 -204.5zM53 553q0 133 38 239t113.5 183t195.5 118.5t278 41.5t278 -41.5t195.5 -118.5t113.5 -183t38 -239q0 -271 -157 -426.5t-468 -155.5t-468 155.5t-157 426.5z
M184 1288q54 136 92 199t76 84.5t101 21.5q84 0 213 -49q119 -45 178 -45q30 0 45 16t45 78l237 -73q-41 -103 -69.5 -160.5t-60 -91.5t-61 -44t-77.5 -10q-82 0 -213 50q-119 45 -178 45q-30 0 -45 -16t-45 -79z" />
    <glyph glyph-name="odieresis" unicode="&#xf6;" 
d="M524 553q0 -147 37 -204.5t117 -57.5t116.5 57.5t36.5 204.5t-36.5 204.5t-116.5 57.5t-117 -57.5t-37 -204.5zM53 553q0 133 38 239t113.5 183t195.5 118.5t278 41.5t278 -41.5t195.5 -118.5t113.5 -183t38 -239q0 -271 -157 -426.5t-468 -155.5t-468 155.5t-157 426.5z
M221 1454q0 83 58 141t141 58t140.5 -58t57.5 -141t-57.5 -141t-140.5 -58t-141 58t-58 141zM737 1454q0 83 58 141t141 58t141 -58t58 -141t-58 -141t-141 -58t-141 58t-58 141z" />
    <glyph glyph-name="divide" unicode="&#xf7;" horiz-adv-x="1249" 
d="M1126 793v-287h-1003v287h1003zM436 227q0 78 55.5 133.5t133.5 55.5t133 -55.5t55 -133.5t-55 -133t-133 -55t-133.5 55t-55.5 133zM436 1071q0 78 55.5 133.5t133.5 55.5t133 -55.5t55 -133.5t-55 -133t-133 -55t-133.5 55t-55.5 133z" />
    <glyph glyph-name="oslash" unicode="&#xf8;" horiz-adv-x="1335" 
d="M1145 1176l145 -146l-106 -106q108 -140 108 -371q0 -271 -157 -426.5t-467 -155.5q-218 0 -359 78l-119 -119l-145 146l107 106q-109 141 -109 371q0 133 38 239t113.5 183t195.5 118.5t278 41.5q214 0 360 -76zM473 553l2 -47l313 313q-42 37 -120 37q-101 0 -148 -67
t-47 -236zM547 287q42 -37 121 -37q101 0 147.5 67t46.5 236q0 33 -2 47z" />
    <glyph glyph-name="ugrave" unicode="&#xf9;" 
d="M479 -29q-343 0 -387 289q-10 69 -10 207v639h450v-680q0 -65 30 -100t87 -35q146 0 146 209v606h450v-1106h-414l-20 178q-14 -65 -43.5 -107.5t-75.5 -63.5t-94.5 -28.5t-118.5 -7.5zM225 1581v16l500 -8l326 -323v-17h-406z" />
    <glyph glyph-name="uacute" unicode="&#xfa;" 
d="M479 -29q-343 0 -387 289q-10 69 -10 207v639h450v-680q0 -65 30 -100t87 -35q146 0 146 209v606h450v-1106h-414l-20 178q-14 -65 -43.5 -107.5t-75.5 -63.5t-94.5 -28.5t-118.5 -7.5zM307 1249v17l326 323l500 8v-16l-420 -332h-406z" />
    <glyph glyph-name="ucircumflex" unicode="&#xfb;" 
d="M479 -29q-343 0 -387 289q-10 69 -10 207v639h450v-680q0 -65 30 -100t87 -35q146 0 146 209v606h450v-1106h-414l-20 178q-14 -65 -43.5 -107.5t-75.5 -63.5t-94.5 -28.5t-118.5 -7.5zM195 1245l290 359h363l291 -359h-377l-98 135l-95 -135h-374z" />
    <glyph glyph-name="udieresis" unicode="&#xfc;" 
d="M479 -29q-343 0 -387 289q-10 69 -10 207v639h450v-680q0 -65 30 -100t87 -35q146 0 146 209v606h450v-1106h-414l-20 178q-14 -65 -43.5 -107.5t-75.5 -63.5t-94.5 -28.5t-118.5 -7.5zM209 1475q0 83 58 140.5t141 57.5t140.5 -57.5t57.5 -140.5t-57.5 -141t-140.5 -58
t-141 58t-58 141zM725 1475q0 83 58 140.5t141 57.5t140.5 -57.5t57.5 -140.5t-57.5 -141t-140.5 -58t-141 58t-58 141z" />
    <glyph glyph-name="yacute" unicode="&#xfd;" horiz-adv-x="1331" 
d="M899 0q-44 -108 -84 -178t-88 -122t-110 -79t-138.5 -39t-185.5 -12q-90 0 -156 10v318q77 -9 158 -9q59 0 85 10.5t38 37.5l-441 1169h519l178 -694l198 694h478zM303 1249v17l326 323l499 8v-16l-419 -332h-406z" />
    <glyph glyph-name="thorn" unicode="&#xfe;" horiz-adv-x="1415" 
d="M561 -389h-450v1884h450v-539q38 98 119.5 138.5t206.5 40.5q242 0 358.5 -148.5t116.5 -423.5q0 -296 -129 -444t-363 -148q-54 0 -97.5 7t-85.5 25t-74 51.5t-52 82.5v-526zM561 514q0 -223 152 -223q82 0 119.5 67.5t37.5 206.5q0 120 -39.5 185t-113.5 65
q-78 0 -117 -57t-39 -185v-59z" />
    <glyph glyph-name="ydieresis" unicode="&#xff;" horiz-adv-x="1331" 
d="M899 0q-44 -108 -84 -178t-88 -122t-110 -79t-138.5 -39t-185.5 -12q-90 0 -156 10v318q77 -9 158 -9q59 0 85 10.5t38 37.5l-441 1169h519l178 -694l198 694h478zM205 1475q0 83 57.5 140.5t140.5 57.5t141 -57.5t58 -140.5t-58 -141t-141 -58t-140.5 58t-57.5 141z
M721 1475q0 83 58 140.5t141 57.5t140.5 -57.5t57.5 -140.5t-57.5 -141t-140.5 -58t-141 58t-58 141z" />
    <glyph glyph-name="Amacron" unicode="&#x100;" horiz-adv-x="1597" 
d="M1112 1495l473 -1495h-483l-72 233h-469l-76 -233h-473l486 1495h614zM420 1640v258h737v-258h-737zM637 582h326l-160 512z" />
    <glyph glyph-name="amacron" unicode="&#x101;" horiz-adv-x="1255" 
d="M627 1135q140 0 241 -25t160 -73t88 -107.5t35 -138.5q6 -83 6 -187v-604h-405l-27 180q-12 -125 -75.5 -167t-217.5 -42q-176 0 -278.5 86.5t-102.5 251.5q0 182 142 270.5t440 88.5h90v57q0 53 -26.5 77.5t-84.5 24.5q-60 0 -86.5 -24.5t-31.5 -73.5h-410
q5 197 144 301.5t399 104.5zM287 1294v258h696v-258h-696zM461 358q0 -79 119 -79q48 0 95.5 31t47.5 81v60q-78 4 -132 -1t-81 -19t-38 -31.5t-11 -41.5z" />
    <glyph glyph-name="Abreve" unicode="&#x102;" horiz-adv-x="1597" 
d="M1112 1495l473 -1495h-483l-72 233h-469l-76 -233h-473l486 1495h614zM377 1958h307q3 -54 28 -80.5t76 -26.5q102 0 105 107h307q0 -187 -93.5 -282t-318.5 -95q-115 0 -196 25t-127.5 75.5t-67 117.5t-20.5 159zM637 582h326l-160 512z" />
    <glyph glyph-name="abreve" unicode="&#x103;" horiz-adv-x="1255" 
d="M627 1135q140 0 241 -25t160 -73t88 -107.5t35 -138.5q6 -83 6 -187v-604h-405l-27 180q-12 -125 -75.5 -167t-217.5 -42q-176 0 -278.5 86.5t-102.5 251.5q0 182 142 270.5t440 88.5h90v57q0 53 -26.5 77.5t-84.5 24.5q-60 0 -86.5 -24.5t-31.5 -73.5h-410
q5 197 144 301.5t399 104.5zM223 1591h307q3 -64 28 -95.5t77 -31.5t77 31t27 96h308q0 -177 -93.5 -266.5t-318.5 -89.5t-318.5 89.5t-93.5 266.5zM461 358q0 -79 119 -79q48 0 95.5 31t47.5 81v60q-78 4 -132 -1t-81 -19t-38 -31.5t-11 -41.5z" />
    <glyph glyph-name="Aogonek" unicode="&#x104;" horiz-adv-x="1597" 
d="M1112 1495l473 -1495h-20q-69 -11 -111.5 -46t-42.5 -67q0 -27 21 -44t63 -17q40 0 70 10l-29 -211q-101 -43 -248 -43q-100 0 -166.5 48.5t-66.5 150.5q0 130 157 219h-110l-72 233h-469l-76 -233h-473l486 1495h614zM637 582h326l-160 512z" />
    <glyph glyph-name="aogonek" unicode="&#x105;" horiz-adv-x="1255" 
d="M627 1135q140 0 241 -25t160 -73t88 -107.5t35 -138.5q6 -83 6 -187v-604q-69 -11 -111 -46t-42 -67q0 -27 20.5 -44t62.5 -17q40 0 70 10l-29 -211q-101 -43 -247 -43q-100 0 -167 45t-67 137q0 144 164 236h-59l-27 180q-12 -125 -75.5 -167t-217.5 -42
q-176 0 -278.5 86.5t-102.5 251.5q0 182 142 270.5t440 88.5h90v57q0 53 -26.5 77.5t-84.5 24.5q-60 0 -86.5 -24.5t-31.5 -73.5h-410q5 197 144 301.5t399 104.5zM461 358q0 -79 119 -79q48 0 95.5 31t47.5 81v60q-78 4 -132 -1t-81 -19t-38 -31.5t-11 -41.5z" />
    <glyph glyph-name="Cacute" unicode="&#x106;" horiz-adv-x="1589" 
d="M829 1524q336 0 508.5 -153.5t198.5 -432.5h-451q-22 94 -89.5 141t-161.5 47q-289 0 -289 -366q0 -391 286 -391q206 0 250 188h451q-57 -586 -713 -586q-365 0 -555 190.5t-190 575.5q0 138 26.5 255.5t85 216.5t145.5 168t213.5 108t284.5 39zM412 1606v16l366 303
l561 8v-16l-481 -311h-446z" />
    <glyph glyph-name="cacute" unicode="&#x107;" horiz-adv-x="1243" 
d="M653 1135q124 0 218 -22t155.5 -60t103 -96.5t61 -123.5t28.5 -149h-449q-8 131 -119 131q-71 0 -99 -63.5t-28 -194.5q0 -141 27.5 -203.5t101.5 -62.5q49 0 80.5 36t36.5 95h449q-24 -219 -164 -335t-420 -116q-300 0 -441 145.5t-141 432.5q0 134 33 238.5t103 183.5
t187 121.5t277 42.5zM270 1249v17l326 323l500 8v-16l-420 -332h-406z" />
    <glyph glyph-name="Cdotaccent" unicode="&#x10a;" horiz-adv-x="1589" 
d="M829 1524q336 0 508.5 -153.5t198.5 -432.5h-451q-22 94 -89.5 141t-161.5 47q-289 0 -289 -366q0 -391 286 -391q206 0 250 188h451q-57 -586 -713 -586q-365 0 -555 190.5t-190 575.5q0 138 26.5 255.5t85 216.5t145.5 168t213.5 108t284.5 39zM602 1831q0 95 67 162
t162 67t162.5 -67t67.5 -162t-67.5 -162t-162.5 -67t-162 67t-67 162z" />
    <glyph glyph-name="cdotaccent" unicode="&#x10b;" horiz-adv-x="1243" 
d="M653 1135q124 0 218 -22t155.5 -60t103 -96.5t61 -123.5t28.5 -149h-449q-8 131 -119 131q-71 0 -99 -63.5t-28 -194.5q0 -141 27.5 -203.5t101.5 -62.5q49 0 80.5 36t36.5 95h449q-24 -219 -164 -335t-420 -116q-300 0 -441 145.5t-141 432.5q0 134 33 238.5t103 183.5
t187 121.5t277 42.5zM399 1475q0 95 67.5 162t162.5 67t162 -67t67 -162t-67 -162.5t-162 -67.5t-162.5 67.5t-67.5 162.5z" />
    <glyph glyph-name="Ccaron" unicode="&#x10c;" horiz-adv-x="1589" 
d="M829 1524q336 0 508.5 -153.5t198.5 -432.5h-451q-22 94 -89.5 141t-161.5 47q-289 0 -289 -366q0 -391 286 -391q206 0 250 188h451q-57 -586 -713 -586q-365 0 -555 190.5t-190 575.5q0 138 26.5 255.5t85 216.5t145.5 168t213.5 108t284.5 39zM381 1950h356l99 -152
l94 152h354l-291 -359h-321z" />
    <glyph glyph-name="ccaron" unicode="&#x10d;" horiz-adv-x="1243" 
d="M653 1135q124 0 218 -22t155.5 -60t103 -96.5t61 -123.5t28.5 -149h-449q-8 131 -119 131q-71 0 -99 -63.5t-28 -194.5q0 -141 27.5 -203.5t101.5 -62.5q49 0 80.5 36t36.5 95h449q-24 -219 -164 -335t-420 -116q-300 0 -441 145.5t-141 432.5q0 134 33 238.5t103 183.5
t187 121.5t277 42.5zM158 1583h377l98 -135l94 135h375l-291 -358h-362z" />
    <glyph glyph-name="Dcaron" unicode="&#x10e;" horiz-adv-x="1619" 
d="M727 1495q108 0 180 -8q107 -12 193.5 -36.5t172.5 -77t143.5 -129t93.5 -198.5t36 -280t-35.5 -284t-94.5 -208t-143 -139.5t-173 -86t-193 -40.5q-72 -8 -180 -8h-604v1495h604zM344 1950h356l99 -152l94 152h354l-291 -359h-321zM582 389h176q166 0 241.5 82t75.5 289
q0 194 -73.5 270t-243.5 76h-176v-717z" />
    <glyph glyph-name="dcaron" unicode="&#x10f;" horiz-adv-x="1972" 
d="M1950 1516v-91l-213 -659h-344l147 750h410zM53 543q0 296 129 444t363 148q54 0 97.5 -7t85.5 -25t74 -51.5t52 -82.5v526h451v-1495h-414l-31 168q-35 -109 -118 -153t-214 -44q-242 0 -358.5 148.5t-116.5 423.5zM545 541q0 -120 39.5 -185t113.5 -65q78 0 117 56.5
t39 184.5v60q0 223 -152 223q-82 0 -119.5 -67.5t-37.5 -206.5z" />
    <glyph glyph-name="Dcroat" unicode="&#x110;" horiz-adv-x="1679" 
d="M924 868v-258h-283v-221h176q166 0 242 82t76 289q0 193 -74 269.5t-244 76.5h-176v-238h283zM20 610v258h162v627h604q109 0 181 -8q107 -12 193.5 -36.5t172.5 -77t143.5 -129t93.5 -198.5t36 -280t-35.5 -284t-94.5 -208t-143 -139.5t-173 -86t-193 -40.5
q-72 -8 -181 -8h-604v610h-162z" />
    <glyph glyph-name="dcroat" unicode="&#x111;" horiz-adv-x="1411" 
d="M1382 1374v-196h-77v-1178h-414l-31 168q-35 -109 -118 -153t-214 -44q-242 0 -358.5 148.5t-116.5 423.5q0 296 129 444t363 148q54 0 97.5 -7t85.5 -25t74 -51.5t52 -82.5v209h-250v196h250v121h451v-121h77zM545 541q0 -120 39.5 -185t113.5 -65q78 0 117 56.5
t39 184.5v60q0 223 -152 223q-82 0 -119.5 -67.5t-37.5 -206.5z" />
    <glyph glyph-name="Emacron" unicode="&#x112;" 
d="M1276 1495v-389h-694v-182h649v-349h-649v-186h706v-389h-1165v1495h1153zM348 1640v258h737v-258h-737z" />
    <glyph glyph-name="emacron" unicode="&#x113;" horiz-adv-x="1245" 
d="M651 1135q141 0 247 -40.5t171.5 -115.5t98 -175.5t32.5 -225.5q0 -74 -6 -132h-702q26 -163 147 -163q92 0 121 84h424q-26 -189 -169 -292.5t-380 -103.5q-287 0 -434.5 143t-147.5 429q0 129 35.5 235.5t106.5 187t187 125t269 44.5zM293 1294v258h696v-258h-696z
M494 688h282q-23 135 -141 135q-116 0 -141 -135z" />
    <glyph glyph-name="Edotaccent" unicode="&#x116;" 
d="M1276 1495v-389h-694v-182h649v-349h-649v-186h706v-389h-1165v1495h1153zM487 1831q0 95 67.5 162t162.5 67t162 -67t67 -162t-67 -162t-162 -67t-162.5 67t-67.5 162z" />
    <glyph glyph-name="edotaccent" unicode="&#x117;" horiz-adv-x="1245" 
d="M651 1135q141 0 247 -40.5t171.5 -115.5t98 -175.5t32.5 -225.5q0 -74 -6 -132h-702q26 -163 147 -163q92 0 121 84h424q-26 -189 -169 -292.5t-380 -103.5q-287 0 -434.5 143t-147.5 429q0 129 35.5 235.5t106.5 187t187 125t269 44.5zM412 1475q0 95 67 162t162 67
t162 -67t67 -162t-67 -162.5t-162 -67.5t-162 67.5t-67 162.5zM494 688h282q-23 135 -141 135q-116 0 -141 -135z" />
    <glyph glyph-name="Eogonek" unicode="&#x118;" 
d="M1276 1495v-389h-694v-182h649v-349h-649v-186h706v-389q-69 -11 -111 -46t-42 -67q0 -27 21 -44t63 -17q39 0 69 10l-28 -211q-101 -43 -248 -43q-100 0 -167 48.5t-67 150.5q0 129 158 219h-813v1495h1153z" />
    <glyph glyph-name="eogonek" unicode="&#x119;" horiz-adv-x="1265" 
d="M662 1135q143 0 251.5 -40.5t175 -115.5t99.5 -175.5t33 -225.5q0 -61 -7 -115h-712q10 -97 48.5 -134.5t108.5 -37.5q101 0 121 88h424q-21 -158 -123 -260q-153 -155 -153 -232q0 -27 21 -44t63 -17q39 0 69 10l-28 -211q-101 -43 -248 -43q-100 0 -167 45t-67 137
q0 121 121 207h-47q-292 0 -442 142.5t-150 429.5q0 129 36 235.5t108.5 187t191 125t273.5 44.5zM502 680h282q-17 135 -141 135q-61 0 -95 -30.5t-46 -104.5z" />
    <glyph glyph-name="Ecaron" unicode="&#x11a;" 
d="M1276 1495v-389h-694v-182h649v-349h-649v-186h706v-389h-1165v1495h1153zM266 1950h357l98 -152l94 152h354l-290 -359h-322z" />
    <glyph glyph-name="ecaron" unicode="&#x11b;" horiz-adv-x="1245" 
d="M651 1135q141 0 247 -40.5t171.5 -115.5t98 -175.5t32.5 -225.5q0 -74 -6 -132h-702q26 -163 147 -163q92 0 121 84h424q-26 -189 -169 -292.5t-380 -103.5q-287 0 -434.5 143t-147.5 429q0 129 35.5 235.5t106.5 187t187 125t269 44.5zM170 1583h377l98 -135l94 135h375
l-291 -358h-362zM494 688h282q-23 135 -141 135q-116 0 -141 -135z" />
    <glyph glyph-name="Gbreve" unicode="&#x11e;" horiz-adv-x="1673" 
d="M545 758q0 -225 76.5 -317.5t240.5 -92.5q106 0 172 40t66 118v24h-266v324h725v-854h-357l-55 176q-10 -74 -49 -113q-37 -39 -132 -65.5t-198 -26.5q-694 0 -694 766q0 174 43.5 314t133 247.5t239 166.5t348.5 59q665 0 716 -553h-450q-38 155 -266 155
q-69 0 -120.5 -18t-91.5 -59t-60.5 -114t-20.5 -177zM440 1958h308q3 -54 28 -80.5t76 -26.5q101 0 104 107h308q0 -187 -93.5 -282t-318.5 -95t-318.5 95t-93.5 282z" />
    <glyph glyph-name="gbreve" unicode="&#x11f;" horiz-adv-x="1382" 
d="M1272 299q0 -152 -2 -211q-17 -506 -608 -506q-573 0 -605 402h424q3 -36 49 -59t121 -23q170 0 170 178v196q-21 -125 -95.5 -174t-209.5 -49q-243 0 -359 141.5t-116 391.5q0 272 126.5 410.5t364.5 138.5q61 0 107 -8.5t88.5 -30.5t70 -64.5t40.5 -105.5l20 180h414
v-807zM276 1591h308q3 -64 27.5 -95.5t76.5 -31.5q102 0 105 127h307q0 -177 -93.5 -266.5t-318.5 -89.5t-318.5 89.5t-93.5 266.5zM512 596q0 -109 38.5 -166t108.5 -57q78 0 119 61t43 168q-3 105 -46 163t-111 58q-152 0 -152 -227z" />
    <glyph glyph-name="Gdotaccent" unicode="&#x120;" horiz-adv-x="1673" 
d="M545 758q0 -225 76.5 -317.5t240.5 -92.5q106 0 172 40t66 118v24h-266v324h725v-854h-357l-55 176q-10 -74 -49 -113q-37 -39 -132 -65.5t-198 -26.5q-694 0 -694 766q0 174 43.5 314t133 247.5t239 166.5t348.5 59q665 0 716 -553h-450q-38 155 -266 155
q-69 0 -120.5 -18t-91.5 -59t-60.5 -114t-20.5 -177zM623 1831q0 95 67 162t162 67t162 -67t67 -162t-67 -162t-162 -67t-162 67t-67 162z" />
    <glyph glyph-name="gdotaccent" unicode="&#x121;" horiz-adv-x="1382" 
d="M1272 299q0 -152 -2 -211q-17 -506 -608 -506q-573 0 -605 402h424q3 -36 49 -59t121 -23q170 0 170 178v196q-21 -125 -95.5 -174t-209.5 -49q-243 0 -359 141.5t-116 391.5q0 272 126.5 410.5t364.5 138.5q61 0 107 -8.5t88.5 -30.5t70 -64.5t40.5 -105.5l20 180h414
v-807zM459 1475q0 95 67 162t162 67t162.5 -67t67.5 -162t-67.5 -162.5t-162.5 -67.5t-162 67.5t-67 162.5zM512 596q0 -109 38.5 -166t108.5 -57q78 0 119 61t43 168q-3 105 -46 163t-111 58q-152 0 -152 -227z" />
    <glyph glyph-name="uni0122" unicode="&#x122;" horiz-adv-x="1673" 
d="M545 758q0 -225 76.5 -317.5t240.5 -92.5q106 0 172 40t66 118v24h-266v324h725v-854h-357l-55 176q-10 -74 -49 -113q-37 -39 -132 -65.5t-198 -26.5q-694 0 -694 766q0 174 43.5 314t133 247.5t239 166.5t348.5 59q665 0 716 -553h-450q-38 155 -266 155
q-69 0 -120.5 -18t-91.5 -59t-60.5 -114t-20.5 -177zM373 -430l315 313h459v-20l-391 -293h-383z" />
    <glyph glyph-name="uni0123" unicode="&#x123;" horiz-adv-x="1353" 
d="M1272 299q0 -152 -2 -211q-17 -506 -608 -506q-573 0 -605 402h424q3 -36 49 -59t121 -23q170 0 170 178v196q-21 -125 -95.5 -174t-209.5 -49q-243 0 -359 141.5t-116 391.5q0 272 126.5 410.5t364.5 138.5q61 0 107 -8.5t88.5 -30.5t70 -64.5t40.5 -105.5l20 180h414
v-807zM373 1182v20l391 293h403l-315 -313h-479zM512 596q0 -109 38.5 -166t108.5 -57q78 0 119 61t43 168q-3 105 -46 163t-111 58q-152 0 -152 -227z" />
    <glyph glyph-name="Hbar" unicode="&#x126;" horiz-adv-x="1740" 
d="M1700 1296v-258h-98v-1038h-459v555h-516v-555h-459v1038h-127v258h127v199h459v-199h516v199h459v-199h98zM627 944h516v94h-516v-94z" />
    <glyph glyph-name="hbar" unicode="&#x127;" horiz-adv-x="1404" 
d="M725 1374v-196h-139v-260q29 119 101.5 168t205.5 49q359 0 403 -289q11 -76 11 -207v-639h-451v659q0 136 -121 136q-149 0 -149 -209v-586h-451v1178h-106v196h106v121h451v-121h139z" />
    <glyph glyph-name="Imacron" unicode="&#x12a;" horiz-adv-x="704" 
d="M582 1495v-1495h-459v1495h459zM-16 1640v258h737v-258h-737z" />
    <glyph glyph-name="imacron" unicode="&#x12b;" horiz-adv-x="671" 
d="M561 1106v-1106h-450v1106h450zM-12 1294v258h696v-258h-696z" />
    <glyph glyph-name="Iogonek" unicode="&#x12e;" horiz-adv-x="704" 
d="M582 1495v-1495q-69 -11 -111.5 -46t-42.5 -67q0 -27 21 -44t63 -17q40 0 70 10l-29 -211q-101 -43 -248 -43q-100 0 -166.5 48.5t-66.5 150.5q0 130 157 219h-106v1495h459z" />
    <glyph glyph-name="iogonek" unicode="&#x12f;" horiz-adv-x="671" 
d="M561 1106v-1106q-69 -11 -111 -46t-42 -67q0 -27 21 -44t63 -17q39 0 69 10l-29 -211q-101 -43 -247 -43q-100 0 -167 45t-67 137q0 144 164 236h-104v1106h450zM106 1475q0 95 67.5 162t162.5 67t162 -67t67 -162t-67 -162.5t-162 -67.5t-162.5 67.5t-67.5 162.5z" />
    <glyph glyph-name="Idotaccent" unicode="&#x130;" horiz-adv-x="704" 
d="M582 1495v-1495h-459v1495h459zM123 1831q0 95 67 162t162 67t162.5 -67t67.5 -162t-67.5 -162t-162.5 -67t-162 67t-67 162z" />
    <glyph glyph-name="dotlessi" unicode="&#x131;" horiz-adv-x="671" 
d="M561 1106v-1106h-450v1106h450z" />
    <glyph glyph-name="IJ" unicode="&#x132;" horiz-adv-x="2101" 
d="M582 1495v-1495h-459v1495h459zM729 582h451q11 -123 58 -168t136 -45q92 0 133 46.5t41 139.5v940h459v-801q0 -111 -6 -215q-15 -270 -162.5 -389t-468.5 -119q-335 0 -483.5 148.5t-157.5 462.5z" />
    <glyph glyph-name="ij" unicode="&#x133;" horiz-adv-x="1343" 
d="M561 1106v-1106h-450v1106h450zM106 1475q0 95 67.5 162t162.5 67t162 -67t67 -162t-67 -162.5t-162 -67.5t-162.5 67.5t-67.5 162.5zM573 -410v287q75 -7 119 1.5t63 41t23 64t4 98.5v1024h451v-1061q0 -57 -4 -131q-6 -82 -32 -139.5t-84.5 -102.5t-162 -67.5
t-254.5 -22.5q-74 0 -123 8zM778 1475q0 95 67.5 162t162.5 67t162 -67t67 -162t-67 -162.5t-162 -67.5t-162.5 67.5t-67.5 162.5z" />
    <glyph glyph-name="uni0136" unicode="&#x136;" horiz-adv-x="1583" 
d="M1577 1495l-455 -584l453 -911h-551l-266 543l-176 -219v-324h-459v1495h459v-653l469 653h526zM371 -430l315 313h459v-20l-391 -293h-383z" />
    <glyph glyph-name="uni0137" unicode="&#x137;" horiz-adv-x="1376" 
d="M1358 1106l-363 -418l389 -688h-534l-209 397l-80 -80v-317h-450v1495h450v-799l324 410h473zM242 -389l315 313h479v-20l-391 -293h-403z" />
    <glyph glyph-name="Lacute" unicode="&#x139;" horiz-adv-x="1288" 
d="M582 1495v-1106h665v-389h-1124v1495h459zM-68 1606v16l367 303l561 8v-16l-481 -311h-447z" />
    <glyph glyph-name="lacute" unicode="&#x13a;" horiz-adv-x="718" 
d="M553 457q0 -104 26 -133t111 -21v-305q-99 -18 -248 -18q-178 0 -253 65.5t-83 212.5q-4 57 -4 195v1042h451v-1038zM-4 1655v16l326 324l499 8v-16l-420 -332h-405z" />
    <glyph glyph-name="uni013B" unicode="&#x13b;" horiz-adv-x="1288" 
d="M582 1495v-1106h665v-389h-1124v1495h459zM317 -430l316 313h459v-20l-392 -293h-383z" />
    <glyph glyph-name="uni013C" unicode="&#x13c;" horiz-adv-x="718" 
d="M553 457q0 -104 26 -133t111 -21v-305q-99 -18 -248 -18q-178 0 -253 65.5t-83 212.5q-4 57 -4 195v1042h451v-1038zM-66 -389l316 313h479v-20l-391 -293h-404z" />
    <glyph glyph-name="Lcaron" unicode="&#x13d;" horiz-adv-x="1288" 
d="M1268 1516v-91l-213 -659h-344l147 750h410zM123 0v1495h459v-1106h665v-389h-1124z" />
    <glyph glyph-name="lcaron" unicode="&#x13e;" horiz-adv-x="1247" 
d="M1217 1516v-91l-213 -659h-345l148 750h410zM102 453v1042h451v-1038q0 -104 26 -133t111 -21v-305q-99 -18 -248 -18q-178 0 -253 65.5t-83 212.5q-4 57 -4 195z" />
    <glyph glyph-name="Ldot" unicode="&#x13f;" horiz-adv-x="1314" 
d="M1044 721q-95 0 -162 67t-67 162t67 162.5t162 67.5t162.5 -67.5t67.5 -162.5t-67.5 -162t-162.5 -67zM123 0v1495h459v-1106h665v-389h-1124z" />
    <glyph glyph-name="ldot" unicode="&#x140;" horiz-adv-x="1114" 
d="M885 487q-95 0 -162.5 67.5t-67.5 162.5t67.5 162t162.5 67t162 -67t67 -162t-67 -162.5t-162 -67.5zM102 453v1042h451v-1038q0 -104 26 -133t111 -21v-305q-99 -18 -248 -18q-178 0 -253 65.5t-83 212.5q-4 57 -4 195z" />
    <glyph glyph-name="Lslash" unicode="&#x141;" horiz-adv-x="1370" 
d="M934 1163v-293l-270 -141v-340h665v-389h-1124v489l-172 -90v293l172 90v713h459v-473z" />
    <glyph glyph-name="lslash" unicode="&#x142;" horiz-adv-x="888" 
d="M840 1069v-293l-164 -121v-198q0 -104 26 -133t111 -21v-305q-99 -18 -248 -18q-178 0 -253 65.5t-83 212.5q-4 82 -4 129l-164 -123v293l164 123v815h451v-545z" />
    <glyph glyph-name="Nacute" unicode="&#x143;" horiz-adv-x="1613" 
d="M1491 1495v-1495h-530l-279 582q-45 93 -139 311q12 -155 12 -350v-543h-432v1495h528l269 -543q91 -186 151 -329q-12 203 -12 370v502h432zM422 1606v16l366 303l562 8v-16l-482 -311h-446z" />
    <glyph glyph-name="nacute" unicode="&#x144;" horiz-adv-x="1380" 
d="M868 1135q360 0 404 -289q10 -69 10 -207v-639h-451v659q0 136 -120 136q-150 0 -150 -209v-586h-450v1106h413l21 -178q31 115 109.5 161t213.5 46zM381 1249v17l326 323l499 8v-16l-420 -332h-405z" />
    <glyph glyph-name="uni0145" unicode="&#x145;" horiz-adv-x="1613" 
d="M1491 1495v-1495h-530l-279 582q-45 93 -139 311q12 -155 12 -350v-543h-432v1495h528l269 -543q91 -186 151 -329q-12 203 -12 370v502h432zM379 -430l315 313h459v-20l-391 -293h-383z" />
    <glyph glyph-name="uni0146" unicode="&#x146;" horiz-adv-x="1380" 
d="M868 1135q360 0 404 -289q10 -69 10 -207v-639h-451v659q0 136 -120 136q-150 0 -150 -209v-586h-450v1106h413l21 -178q31 115 109.5 161t213.5 46zM260 -389l315 313h480v-20l-391 -293h-404z" />
    <glyph glyph-name="Ncaron" unicode="&#x147;" horiz-adv-x="1613" 
d="M1491 1495v-1495h-530l-279 582q-45 93 -139 311q12 -155 12 -350v-543h-432v1495h528l269 -543q91 -186 151 -329q-12 203 -12 370v502h432zM391 1950h357l98 -152l94 152h354l-290 -359h-322z" />
    <glyph glyph-name="ncaron" unicode="&#x148;" horiz-adv-x="1380" 
d="M868 1135q360 0 404 -289q10 -69 10 -207v-639h-451v659q0 136 -120 136q-150 0 -150 -209v-586h-450v1106h413l21 -178q31 115 109.5 161t213.5 46zM268 1583h377l98 -135l95 135h374l-290 -358h-363z" />
    <glyph glyph-name="Eng" unicode="&#x14a;" horiz-adv-x="1613" 
d="M1491 -55q0 -55 -2 -84q-5 -78 -32 -133.5t-72.5 -91.5t-121 -56.5t-164.5 -28.5t-216 -8v312q87 -7 120 12.5t33 64.5v68h-75l-279 582q-45 93 -139 311q12 -155 12 -350v-543h-432v1495h528l269 -543q91 -186 151 -329q-12 203 -12 370v502h432v-1550z" />
    <glyph glyph-name="eng" unicode="&#x14b;" horiz-adv-x="1380" 
d="M1282 -29q0 -55 -2 -84q-6 -92 -39 -150.5t-104.5 -93t-172 -48t-257.5 -13.5v320q78 0 101 15t23 60v682q0 136 -120 136q-150 0 -150 -209v-586h-450v1106h413l21 -178q31 115 109.5 161t213.5 46q360 0 404 -289q10 -69 10 -207v-668z" />
    <glyph glyph-name="Omacron" unicode="&#x14c;" horiz-adv-x="1671" 
d="M545 748q0 -379 291 -379q145 0 217.5 92.5t72.5 286.5t-72.5 286t-217.5 92t-218 -92t-73 -286zM74 748q0 388 193.5 582t568.5 194t568 -194t193 -582q0 -389 -193 -583t-568 -194t-568.5 194.5t-193.5 582.5zM467 1640v258h737v-258h-737z" />
    <glyph glyph-name="omacron" unicode="&#x14d;" 
d="M524 553q0 -147 37 -204.5t117 -57.5t116.5 57.5t36.5 204.5t-36.5 204.5t-116.5 57.5t-117 -57.5t-37 -204.5zM53 553q0 133 38 239t113.5 183t195.5 118.5t278 41.5t278 -41.5t195.5 -118.5t113.5 -183t38 -239q0 -271 -157 -426.5t-468 -155.5t-468 155.5t-157 426.5z
M330 1274v258h696v-258h-696z" />
    <glyph glyph-name="Ohungarumlaut" unicode="&#x150;" horiz-adv-x="1671" 
d="M545 748q0 -379 291 -379q145 0 217.5 92.5t72.5 286.5t-72.5 286t-217.5 92t-218 -92t-73 -286zM74 748q0 388 193.5 582t568.5 194t568 -194t193 -582q0 -389 -193 -583t-568 -194t-568.5 194.5t-193.5 582.5zM279 1606v16l223 303l438 8v-16l-297 -311h-364zM893 1606
v16l223 303l438 8v-16l-297 -311h-364z" />
    <glyph glyph-name="ohungarumlaut" unicode="&#x151;" 
d="M524 553q0 -147 37 -204.5t117 -57.5t116.5 57.5t36.5 204.5t-36.5 204.5t-116.5 57.5t-117 -57.5t-37 -204.5zM53 553q0 133 38 239t113.5 183t195.5 118.5t278 41.5t278 -41.5t195.5 -118.5t113.5 -183t38 -239q0 -271 -157 -426.5t-468 -155.5t-468 155.5t-157 426.5z
M152 1208v17l243 344l398 8v-16l-318 -353h-323zM705 1208v17l243 344l398 8v-16l-318 -353h-323z" />
    <glyph glyph-name="OE" unicode="&#x152;" horiz-adv-x="2312" 
d="M2232 1495v-389h-653v-182h608v-349h-608v-186h666v-389h-1125v170q-18 -51 -59 -92q-60 -60 -133.5 -83.5t-194.5 -23.5q-317 0 -488 195.5t-171 581.5t171 581t488 195q120 0 198 -21.5t138 -70.5q36 -26 51 -89v152h1112zM545 748q0 -205 71.5 -292t219.5 -87
q141 0 212.5 76.5t71.5 240.5v123q0 164 -71.5 240.5t-212.5 76.5q-148 0 -219.5 -87t-71.5 -291z" />
    <glyph glyph-name="oe" unicode="&#x153;" horiz-adv-x="2043" 
d="M678 1135q102 0 200.5 -35.5t172.5 -104.5q140 140 389 140q143 0 251.5 -40.5t175 -115.5t99.5 -175.5t33 -225.5q0 -60 -6 -107h-715q10 -103 49 -141.5t111 -38.5q101 0 121 88h423q-28 -196 -172 -302t-387 -106q-245 0 -376 125q-145 -125 -369 -125
q-311 0 -468 155.5t-157 426.5q0 133 38 239t113.5 183t195.5 118.5t278 41.5zM524 553q0 -147 37 -204.5t117 -57.5q149 0 149 262q0 140 -38 201t-111 61q-80 0 -117 -57.5t-37 -204.5zM1280 672h285q-14 143 -144 143q-63 0 -97 -32t-44 -111z" />
    <glyph glyph-name="Racute" unicode="&#x154;" horiz-adv-x="1519" 
d="M1485 18v-18h-537q-3 26 -12.5 130.5t-17.5 178.5q-9 92 -43 122t-134 30h-159v-461h-459v1495h663q127 0 222 -10q64 -8 120 -23.5t114.5 -48t99.5 -77.5t67.5 -116.5t26.5 -160.5q0 -280 -260 -379q189 -72 206 -268q17 -189 45 -326zM358 1606v16l367 303l561 8v-16
l-481 -311h-447zM582 829h204q179 0 179 146q0 151 -179 151h-204v-297z" />
    <glyph glyph-name="racute" unicode="&#x155;" horiz-adv-x="962" 
d="M854 1135q72 0 115 -11v-346q-223 26 -315.5 -47.5t-92.5 -265.5v-465h-450v1106h413l21 -219q21 140 97 194t212 54zM137 1249v17l326 323l500 8v-16l-420 -332h-406z" />
    <glyph glyph-name="uni0156" unicode="&#x156;" horiz-adv-x="1519" 
d="M1485 18v-18h-537q-3 26 -12.5 130.5t-17.5 178.5q-9 92 -43 122t-134 30h-159v-461h-459v1495h663q127 0 222 -10q64 -8 120 -23.5t114.5 -48t99.5 -77.5t67.5 -116.5t26.5 -160.5q0 -280 -260 -379q189 -72 206 -268q17 -189 45 -326zM346 -430l316 313h458v-20
l-391 -293h-383zM582 829h204q179 0 179 146q0 151 -179 151h-204v-297z" />
    <glyph glyph-name="uni0157" unicode="&#x157;" horiz-adv-x="962" 
d="M854 1135q72 0 115 -11v-346q-223 26 -315.5 -47.5t-92.5 -265.5v-465h-450v1106h413l21 -219q21 140 97 194t212 54zM-145 -389l315 313h479v-20l-391 -293h-403z" />
    <glyph glyph-name="Rcaron" unicode="&#x158;" horiz-adv-x="1519" 
d="M1485 18v-18h-537q-3 26 -12.5 130.5t-17.5 178.5q-9 92 -43 122t-134 30h-159v-461h-459v1495h663q127 0 222 -10q64 -8 120 -23.5t114.5 -48t99.5 -77.5t67.5 -116.5t26.5 -160.5q0 -280 -260 -379q189 -72 206 -268q17 -189 45 -326zM328 1950h356l98 -152l95 152h354
l-291 -359h-322zM582 829h204q179 0 179 146q0 151 -179 151h-204v-297z" />
    <glyph glyph-name="rcaron" unicode="&#x159;" horiz-adv-x="962" 
d="M854 1135q72 0 115 -11v-346q-223 26 -315.5 -47.5t-92.5 -265.5v-465h-450v1106h413l21 -219q21 140 97 194t212 54zM25 1583h376l99 -135l94 135h375l-291 -358h-363z" />
    <glyph glyph-name="Sacute" unicode="&#x15a;" horiz-adv-x="1425" 
d="M713 1524q297 0 459 -130.5t174 -381.5h-451q-9 61 -60 98t-139 37q-68 0 -106.5 -21.5t-38.5 -58.5q0 -50 48.5 -72.5t195.5 -46.5q293 -48 439 -163t146 -326q0 -106 -37 -190.5t-98.5 -139.5t-148 -91t-179.5 -51.5t-198 -15.5q-306 0 -486 132.5t-190 394.5h451
q10 -73 72.5 -111.5t156.5 -38.5q85 0 135.5 23.5t50.5 62.5q0 32 -21 54t-80.5 42t-168.5 37q-131 21 -230.5 57t-176.5 93t-116 142t-36 196q3 116 54 207t138.5 147.5t199 85.5t241.5 29zM289 1606v16l366 303l562 8v-16l-482 -311h-446z" />
    <glyph glyph-name="sacute" unicode="&#x15b;" horiz-adv-x="1175" 
d="M590 1135q130 0 224.5 -25.5t151.5 -73.5t86 -111t35 -145h-411q-6 45 -29 64.5t-65 19.5q-35 0 -58.5 -16t-23.5 -43q0 -24 11 -37.5t49 -26t112 -22.5q227 -30 341.5 -117t114.5 -252q0 -99 -43 -174t-118.5 -119t-170 -65t-206.5 -21q-256 0 -386 89.5t-153 275.5h424
q9 -94 123 -94q50 0 75 16.5t25 44.5q0 52 -159 76q-257 37 -363 122t-106 257t141 274.5t379 102.5zM217 1249v17l326 323l499 8v-16l-419 -332h-406z" />
    <glyph glyph-name="Scedilla" unicode="&#x15e;" horiz-adv-x="1425" 
d="M713 1524q297 0 459 -130.5t174 -381.5h-451q-9 61 -60 98t-139 37q-68 0 -106.5 -21.5t-38.5 -58.5q0 -50 48.5 -72.5t195.5 -46.5q293 -48 439 -163t146 -326q0 -91 -27 -166t-74 -127.5t-113 -91.5t-140 -61.5t-160 -32.5l-18 -29q85 -15 126.5 -53t41.5 -107
q0 -98 -96.5 -153.5t-249.5 -55.5q-112 0 -178 12v189q46 -10 81 -10q42 0 60 9.5t18 31.5q0 48 -104 39v26l59 96q-259 24 -406.5 154.5t-156.5 368.5h451q10 -73 72.5 -111.5t156.5 -38.5q85 0 135.5 23.5t50.5 62.5q0 32 -21 54t-80.5 42t-168.5 37q-131 21 -230.5 57
t-176.5 93t-116 142t-36 196q3 116 54 207t138.5 147.5t199 85.5t241.5 29z" />
    <glyph glyph-name="scedilla" unicode="&#x15f;" horiz-adv-x="1175" 
d="M590 1135q130 0 224.5 -25.5t151.5 -73.5t86 -111t35 -145h-411q-6 45 -29 64.5t-65 19.5q-35 0 -58.5 -16t-23.5 -43q0 -24 11 -37.5t49 -26t112 -22.5q227 -30 341.5 -117t114.5 -252q0 -84 -31 -150.5t-87 -110.5t-128 -71t-161 -38l-19 -29q85 -15 126.5 -53
t41.5 -107q0 -98 -96.5 -153.5t-249.5 -55.5q-112 0 -178 12v189q46 -10 82 -10q42 0 60 9.5t18 31.5q0 48 -105 39v26l60 98q-191 22 -290.5 110t-119.5 249h424q9 -94 123 -94q50 0 75 16.5t25 44.5q0 52 -159 76q-257 37 -363 122t-106 257t141 274.5t379 102.5z" />
    <glyph glyph-name="Scaron" unicode="&#x160;" horiz-adv-x="1425" 
d="M713 1524q297 0 459 -130.5t174 -381.5h-451q-9 61 -60 98t-139 37q-68 0 -106.5 -21.5t-38.5 -58.5q0 -50 48.5 -72.5t195.5 -46.5q293 -48 439 -163t146 -326q0 -106 -37 -190.5t-98.5 -139.5t-148 -91t-179.5 -51.5t-198 -15.5q-306 0 -486 132.5t-190 394.5h451
q10 -73 72.5 -111.5t156.5 -38.5q85 0 135.5 23.5t50.5 62.5q0 32 -21 54t-80.5 42t-168.5 37q-131 21 -230.5 57t-176.5 93t-116 142t-36 196q3 116 54 207t138.5 147.5t199 85.5t241.5 29zM258 1950h356l99 -152l94 152h354l-291 -359h-321z" />
    <glyph glyph-name="scaron" unicode="&#x161;" horiz-adv-x="1175" 
d="M590 1135q130 0 224.5 -25.5t151.5 -73.5t86 -111t35 -145h-411q-6 45 -29 64.5t-65 19.5q-35 0 -58.5 -16t-23.5 -43q0 -24 11 -37.5t49 -26t112 -22.5q227 -30 341.5 -117t114.5 -252q0 -99 -43 -174t-118.5 -119t-170 -65t-206.5 -21q-256 0 -386 89.5t-153 275.5h424
q9 -94 123 -94q50 0 75 16.5t25 44.5q0 52 -159 76q-257 37 -363 122t-106 257t141 274.5t379 102.5zM104 1583h377l99 -135l94 135h375l-291 -358h-363z" />
    <glyph glyph-name="uni0162" unicode="&#x162;" horiz-adv-x="1425" 
d="M1376 1495v-389h-434v-1106h-92l-31 -49q85 -15 126.5 -53t41.5 -107q0 -98 -96.5 -153.5t-249.5 -55.5q-112 0 -178 12v189q46 -10 82 -10q42 0 60 9.5t18 31.5q0 48 -105 39v26l74 121h-109v1106h-434v389h1327z" />
    <glyph glyph-name="uni0163" unicode="&#x163;" horiz-adv-x="952" 
d="M666 428q0 -101 40.5 -129t178.5 -23v-286q-118 -15 -189 -17l-14 -22q85 -15 126.5 -53t41.5 -107q0 -98 -96.5 -153.5t-249.5 -55.5q-112 0 -178 12v189q46 -10 82 -10q42 0 59.5 9.5t17.5 31.5q0 48 -104 39v26l63 105q-116 24 -166.5 88t-58.5 172q-4 63 -4 176v366
h-174v320h174v303h451v-303h241v-320h-241v-358z" />
    <glyph glyph-name="Tcaron" unicode="&#x164;" horiz-adv-x="1425" 
d="M1376 1495v-389h-434v-1106h-459v1106h-434v389h1327zM262 1950h356l99 -152l94 152h354l-291 -359h-321z" />
    <glyph glyph-name="tcaron" unicode="&#x165;" horiz-adv-x="1157" 
d="M1128 1516v-50l-90 -295h-327l65 345h352zM41 786v320h174v303h451v-303h241v-320h-241v-358q0 -101 40.5 -129t178.5 -23v-286q-146 -19 -299 -19q-100 0 -170 18.5t-111.5 55.5t-61 85t-24.5 114q-4 63 -4 176v366h-174z" />
    <glyph glyph-name="Tbar" unicode="&#x166;" horiz-adv-x="1425" 
d="M1188 797v-258h-246v-539h-459v539h-245v258h245v309h-434v389h1327v-389h-434v-309h246z" />
    <glyph glyph-name="tbar" unicode="&#x167;" horiz-adv-x="921" 
d="M791 655v-196h-125v-31q0 -101 40.5 -129t178.5 -23v-286q-146 -19 -299 -19q-100 0 -170 18.5t-111.5 55.5t-61 85t-24.5 114q-4 63 -4 176v39h-141v196h141v131h-174v320h174v303h451v-303h241v-320h-241v-131h125z" />
    <glyph glyph-name="Umacron" unicode="&#x16a;" horiz-adv-x="1564" 
d="M1464 682q0 -115 -6 -199q-9 -123 -50 -215t-119.5 -160t-204 -102.5t-296.5 -34.5q-336 0 -500 131.5t-182 380.5q-6 84 -6 199v813h459v-848q0 -155 54.5 -216.5t174.5 -61.5q122 0 176 62.5t54 215.5v848h446v-813zM420 1640v258h737v-258h-737z" />
    <glyph glyph-name="umacron" unicode="&#x16b;" 
d="M479 -29q-343 0 -387 289q-10 69 -10 207v639h450v-680q0 -65 30 -100t87 -35q146 0 146 209v606h450v-1106h-414l-20 178q-14 -65 -43.5 -107.5t-75.5 -63.5t-94.5 -28.5t-118.5 -7.5zM317 1294v258h697v-258h-697z" />
    <glyph glyph-name="Uring" unicode="&#x16e;" horiz-adv-x="1564" 
d="M1464 682q0 -115 -6 -199q-9 -123 -50 -215t-119.5 -160t-204 -102.5t-296.5 -34.5q-336 0 -500 131.5t-182 380.5q-6 84 -6 199v813h459v-848q0 -155 54.5 -216.5t174.5 -61.5q122 0 176 62.5t54 215.5v848h446v-813zM444 1835q0 127 94 193.5t250 66.5t250.5 -66.5
t94.5 -193.5t-94.5 -193.5t-250.5 -66.5t-250 66.5t-94 193.5zM717 1835q0 -84 71 -84q72 0 72 84t-72 84q-71 0 -71 -84z" />
    <glyph glyph-name="uring" unicode="&#x16f;" 
d="M479 -29q-343 0 -387 289q-10 69 -10 207v639h450v-680q0 -65 30 -100t87 -35q146 0 146 209v606h450v-1106h-414l-20 178q-14 -65 -43.5 -107.5t-75.5 -63.5t-94.5 -28.5t-118.5 -7.5zM322 1481q0 127 94 193.5t250 66.5t250 -66.5t94 -193.5t-94 -193.5t-250 -66.5
t-250 66.5t-94 193.5zM594 1481q0 -84 72 -84q71 0 71 84t-71 84q-72 0 -72 -84z" />
    <glyph glyph-name="Uhungarumlaut" unicode="&#x170;" horiz-adv-x="1564" 
d="M1464 682q0 -115 -6 -199q-9 -123 -50 -215t-119.5 -160t-204 -102.5t-296.5 -34.5q-336 0 -500 131.5t-182 380.5q-6 84 -6 199v813h459v-848q0 -155 54.5 -216.5t174.5 -61.5q122 0 176 62.5t54 215.5v848h446v-813zM231 1606v16l224 303l438 8v-16l-297 -311h-365z
M846 1606v16l223 303l438 8v-16l-297 -311h-364z" />
    <glyph glyph-name="uhungarumlaut" unicode="&#x171;" 
d="M479 -29q-343 0 -387 289q-10 69 -10 207v639h450v-680q0 -65 30 -100t87 -35q146 0 146 209v606h450v-1106h-414l-20 178q-14 -65 -43.5 -107.5t-75.5 -63.5t-94.5 -28.5t-118.5 -7.5zM139 1229v16l244 344l397 8v-16l-317 -352h-324zM692 1229v16l244 344l397 8v-16
l-317 -352h-324z" />
    <glyph glyph-name="Uogonek" unicode="&#x172;" horiz-adv-x="1564" 
d="M1464 682q0 -115 -6 -199q-12 -180 -112 -311q-100 -127 -131 -183t-31 -93q0 -70 84 -70q39 0 69 10l-28 -211q-101 -43 -248 -43q-100 0 -167 48.5t-67 150.5q0 115 125 201q-90 -11 -164 -11q-336 0 -500 131.5t-182 380.5q-6 84 -6 199v813h459v-889
q0 -157 52.5 -217.5t176.5 -60.5q127 0 178.5 62t51.5 216v889h446v-813z" />
    <glyph glyph-name="uogonek" unicode="&#x173;" 
d="M479 -29q-343 0 -387 289q-10 69 -10 207v639h450v-680q0 -65 30 -100t87 -35q146 0 146 209v606h450v-1106q-69 -11 -111 -46t-42 -67q0 -27 21 -44t63 -17q39 0 69 10l-28 -211q-101 -43 -248 -43q-100 0 -167 45t-67 137q0 144 164 236h-68l-20 178
q-14 -65 -43.5 -107.5t-75.5 -63.5t-94.5 -28.5t-118.5 -7.5z" />
    <glyph glyph-name="Wcircumflex" unicode="&#x174;" horiz-adv-x="2144" 
d="M2124 1495l-334 -1495h-582l-98 608q-26 176 -33 242q-17 -140 -35 -240l-106 -610h-596l-320 1495h494l109 -664q27 -173 43 -315q17 151 53 315l133 644h471l129 -644q34 -184 49 -286q14 135 43 286l131 664h449zM594 1591l291 359h362l291 -359h-377l-98 135
l-94 -135h-375z" />
    <glyph glyph-name="wcircumflex" unicode="&#x175;" horiz-adv-x="1806" 
d="M1798 1106l-293 -1106h-473q-85 282 -135 541q-44 -255 -123 -541h-473l-293 1106h473q56 -279 90 -643q43 216 150 614h389q92 -354 141 -614q39 336 109 641zM420 1245l291 359h362l291 -359h-377l-98 135l-94 -135h-375z" />
    <glyph glyph-name="Ycircumflex" unicode="&#x176;" horiz-adv-x="1585" 
d="M1606 1495l-584 -942v-553h-459v553l-583 942h542l281 -504l272 504h531zM322 1591l290 359h363l291 -359h-377l-98 135l-95 -135h-374z" />
    <glyph glyph-name="ycircumflex" unicode="&#x177;" horiz-adv-x="1331" 
d="M899 0q-44 -108 -84 -178t-88 -122t-110 -79t-138.5 -39t-185.5 -12q-90 0 -156 10v318q77 -9 158 -9q59 0 85 10.5t38 37.5l-441 1169h519l178 -694l198 694h478zM190 1245l291 359h363l291 -359h-377l-99 135l-94 -135h-375z" />
    <glyph glyph-name="Ydieresis" unicode="&#x178;" horiz-adv-x="1585" 
d="M1606 1495l-584 -942v-553h-459v553l-583 942h542l281 -504l272 504h531zM328 1810q0 83 57.5 141t140.5 58t141 -58t58 -141t-58 -140.5t-141 -57.5t-140.5 57.5t-57.5 140.5zM860 1810q0 83 58 141t141 58t140.5 -58t57.5 -141t-57.5 -140.5t-140.5 -57.5t-141 57.5
t-58 140.5z" />
    <glyph glyph-name="Zacute" unicode="&#x179;" horiz-adv-x="1484" 
d="M1409 1495v-326l-711 -780h705v-389h-1321v319l715 787h-701v389h1313zM334 1606v16l366 303l562 8v-16l-482 -311h-446z" />
    <glyph glyph-name="zacute" unicode="&#x17a;" horiz-adv-x="1200" 
d="M1124 1106v-242l-456 -545h452v-319h-1050v231l460 555h-440v320h1034zM248 1249v17l325 323l500 8v-16l-420 -332h-405z" />
    <glyph glyph-name="Zdotaccent" unicode="&#x17b;" horiz-adv-x="1484" 
d="M1409 1495v-326l-711 -780h705v-389h-1321v319l715 787h-701v389h1313zM524 1831q0 95 67.5 162t162.5 67t162 -67t67 -162t-67 -162t-162 -67t-162.5 67t-67.5 162z" />
    <glyph glyph-name="zdotaccent" unicode="&#x17c;" horiz-adv-x="1200" 
d="M1124 1106v-242l-456 -545h452v-319h-1050v231l460 555h-440v320h1034zM377 1475q0 95 67 162t162 67t162.5 -67t67.5 -162t-67.5 -162.5t-162.5 -67.5t-162 67.5t-67 162.5z" />
    <glyph glyph-name="Zcaron" unicode="&#x17d;" horiz-adv-x="1484" 
d="M1409 1495v-326l-711 -780h705v-389h-1321v319l715 787h-701v389h1313zM303 1950h356l99 -152l94 152h354l-291 -359h-321z" />
    <glyph glyph-name="zcaron" unicode="&#x17e;" horiz-adv-x="1200" 
d="M1124 1106v-242l-456 -545h452v-319h-1050v231l460 555h-440v320h1034zM135 1583h377l98 -135l95 135h374l-291 -358h-362z" />
    <glyph glyph-name="uni0218" unicode="&#x218;" horiz-adv-x="1425" 
d="M713 1524q297 0 459 -130.5t174 -381.5h-451q-9 61 -60 98t-139 37q-68 0 -106.5 -21.5t-38.5 -58.5q0 -50 48.5 -72.5t195.5 -46.5q293 -48 439 -163t146 -326q0 -106 -37 -190.5t-98.5 -139.5t-148 -91t-179.5 -51.5t-198 -15.5q-306 0 -486 132.5t-190 394.5h451
q10 -73 72.5 -111.5t156.5 -38.5q85 0 135.5 23.5t50.5 62.5q0 32 -21 54t-80.5 42t-168.5 37q-131 21 -230.5 57t-176.5 93t-116 142t-36 196q3 116 54 207t138.5 147.5t199 85.5t241.5 29zM324 -430l315 313h459v-20l-391 -293h-383z" />
    <glyph glyph-name="uni0219" unicode="&#x219;" horiz-adv-x="1175" 
d="M590 1135q130 0 224.5 -25.5t151.5 -73.5t86 -111t35 -145h-411q-6 45 -29 64.5t-65 19.5q-35 0 -58.5 -16t-23.5 -43q0 -24 11 -37.5t49 -26t112 -22.5q227 -30 341.5 -117t114.5 -252q0 -99 -43 -174t-118.5 -119t-170 -65t-206.5 -21q-256 0 -386 89.5t-153 275.5h424
q9 -94 123 -94q50 0 75 16.5t25 44.5q0 52 -159 76q-257 37 -363 122t-106 257t141 274.5t379 102.5zM117 -389l315 313h479v-20l-391 -293h-403z" />
    <glyph glyph-name="uni021A" unicode="&#x21a;" horiz-adv-x="1425" 
d="M1376 1495v-389h-434v-1106h-459v1106h-434v389h1327zM295 -430l315 313h459v-20l-391 -293h-383z" />
    <glyph glyph-name="uni021B" unicode="&#x21b;" horiz-adv-x="952" 
d="M666 428q0 -101 40.5 -129t178.5 -23v-286q-146 -19 -299 -19q-100 0 -170 18.5t-111.5 55.5t-61 85t-24.5 114q-4 63 -4 176v366h-174v320h174v303h451v-303h241v-320h-241v-358zM96 -389l316 313h479v-20l-391 -293h-404z" />
    <glyph glyph-name="uni0237" unicode="&#x237;" horiz-adv-x="671" 
d="M561 45q0 -57 -4 -131q-4 -65 -21 -113.5t-54 -91.5t-95.5 -70t-149 -42t-212.5 -15q-74 0 -123 8v287q75 -7 119 1.5t63 41t23 64t4 98.5v1024h450v-1061z" />
    <glyph glyph-name="circumflex" unicode="&#x2c6;" horiz-adv-x="1024" 
d="M694 1604l291 -359h-377l-98 135l-94 -135h-375l291 359h362z" />
    <glyph glyph-name="caron" unicode="&#x2c7;" horiz-adv-x="1024" 
d="M332 1225l-291 358h377l98 -135l94 135h375l-291 -358h-362z" />
    <glyph glyph-name="breve" unicode="&#x2d8;" horiz-adv-x="1024" 
d="M512 1235q-225 0 -318.5 89.5t-93.5 266.5h308q3 -64 27.5 -95.5t76.5 -31.5t77 31t27 96h308q0 -177 -93.5 -266.5t-318.5 -89.5z" />
    <glyph glyph-name="dotaccent" unicode="&#x2d9;" horiz-adv-x="1024" 
d="M512 1245q-95 0 -162 67.5t-67 162.5t67 162t162 67t162 -67t67 -162t-67 -162.5t-162 -67.5z" />
    <glyph glyph-name="ring" unicode="&#x2da;" horiz-adv-x="1024" 
d="M440 1481q0 -84 72 -84t72 84t-72 84t-72 -84zM168 1481q0 127 94 193.5t250 66.5t250 -66.5t94 -193.5t-94 -193.5t-250 -66.5t-250 66.5t-94 193.5z" />
    <glyph glyph-name="ogonek" unicode="&#x2db;" horiz-adv-x="1024" 
d="M807 0q-69 -11 -111.5 -46t-42.5 -67q0 -27 21 -44t63 -17q40 0 70 10l-29 -211q-101 -43 -248 -43q-100 0 -166.5 45t-66.5 137q0 100 78.5 173t199.5 114z" />
    <glyph glyph-name="tilde" unicode="&#x2dc;" horiz-adv-x="1024" 
d="M287 1614q84 0 213 -49q119 -45 178 -45q30 0 45 16t45 78l238 -74q-54 -136 -92 -199t-76 -84.5t-101 -21.5q-84 0 -213 49q-119 45 -178 45q-30 0 -45 -16t-45 -78l-238 74q54 136 92 199t76 84.5t101 21.5z" />
    <glyph glyph-name="hungarumlaut" unicode="&#x2dd;" horiz-adv-x="1024" 
d="M627 1581l-318 -352h-323v16l243 344l398 8v-16zM539 1229v16l243 344l398 8v-16l-318 -352h-323z" />
    <glyph glyph-name="uni0326" unicode="&#x326;" horiz-adv-x="0" 
d="M827 -76v-20l-391 -293h-403l315 313h479z" />
    <glyph glyph-name="Wgrave" unicode="&#x1e80;" horiz-adv-x="2144" 
d="M2124 1495l-334 -1495h-582l-98 608q-26 176 -33 242q-17 -140 -35 -240l-106 -610h-596l-320 1495h494l109 -664q27 -173 43 -315q17 151 53 315l133 644h471l129 -644q34 -184 49 -286q14 135 43 286l131 664h449zM604 1917v16l561 -8l367 -303v-16h-447z" />
    <glyph glyph-name="wgrave" unicode="&#x1e81;" horiz-adv-x="1806" 
d="M1798 1106l-293 -1106h-473q-85 282 -135 541q-44 -255 -123 -541h-473l-293 1106h473q56 -279 90 -643q43 216 150 614h389q92 -354 141 -614q39 336 109 641zM451 1581v16l499 -8l326 -323v-17h-406z" />
    <glyph glyph-name="Wacute" unicode="&#x1e82;" horiz-adv-x="2144" 
d="M2124 1495l-334 -1495h-582l-98 608q-26 176 -33 242q-17 -140 -35 -240l-106 -610h-596l-320 1495h494l109 -664q27 -173 43 -315q17 151 53 315l133 644h471l129 -644q34 -184 49 -286q14 135 43 286l131 664h449zM645 1606v16l367 303l561 8v-16l-481 -311h-447z" />
    <glyph glyph-name="wacute" unicode="&#x1e83;" horiz-adv-x="1806" 
d="M1798 1106l-293 -1106h-473q-85 282 -135 541q-44 -255 -123 -541h-473l-293 1106h473q56 -279 90 -643q43 216 150 614h389q92 -354 141 -614q39 336 109 641zM532 1249v17l326 323l500 8v-16l-420 -332h-406z" />
    <glyph glyph-name="Wdieresis" unicode="&#x1e84;" horiz-adv-x="2144" 
d="M2124 1495l-334 -1495h-582l-98 608q-26 176 -33 242q-17 -140 -35 -240l-106 -610h-596l-320 1495h494l109 -664q27 -173 43 -315q17 151 53 315l133 644h471l129 -644q34 -184 49 -286q14 135 43 286l131 664h449zM600 1810q0 83 58 141t141 58t140.5 -58t57.5 -141
t-57.5 -140.5t-140.5 -57.5t-141 57.5t-58 140.5zM1133 1810q0 83 57.5 141t140.5 58t141 -58t58 -141t-58 -140.5t-141 -57.5t-140.5 57.5t-57.5 140.5z" />
    <glyph glyph-name="wdieresis" unicode="&#x1e85;" horiz-adv-x="1806" 
d="M1798 1106l-293 -1106h-473q-85 282 -135 541q-44 -255 -123 -541h-473l-293 1106h473q56 -279 90 -643q43 216 150 614h389q92 -354 141 -614q39 336 109 641zM434 1475q0 83 58 140.5t141 57.5t140.5 -57.5t57.5 -140.5t-57.5 -141t-140.5 -58t-141 58t-58 141z
M950 1475q0 83 58 140.5t141 57.5t141 -57.5t58 -140.5t-58 -141t-141 -58t-141 58t-58 141z" />
    <glyph glyph-name="uni1E9E" unicode="&#x1e9e;" horiz-adv-x="1652" 
d="M1513 1495v-285l-256 -301q345 -105 345 -450q0 -237 -162.5 -362.5t-458.5 -125.5q-176 0 -289 43v422q122 -67 266 -67q172 0 172 131q0 79 -95 125t-273 45v243l178 193h-358v-1106h-459v1495h1390z" />
    <glyph glyph-name="Ygrave" unicode="&#x1ef2;" horiz-adv-x="1585" 
d="M1606 1495l-584 -942v-553h-459v553l-583 942h542l281 -504l272 504h531zM332 1917v16l561 -8l367 -303v-16h-447z" />
    <glyph glyph-name="ygrave" unicode="&#x1ef3;" horiz-adv-x="1331" 
d="M899 0q-44 -108 -84 -178t-88 -122t-110 -79t-138.5 -39t-185.5 -12q-90 0 -156 10v318q77 -9 158 -9q59 0 85 10.5t38 37.5l-441 1169h519l178 -694l198 694h478zM221 1581v16l500 -8l326 -323v-17h-406z" />
    <glyph glyph-name="endash" unicode="&#x2013;" horiz-adv-x="1126" 
d="M942 768v-307h-758v307h758z" />
    <glyph glyph-name="emdash" unicode="&#x2014;" horiz-adv-x="2048" 
d="M1864 768v-307h-1680v307h1680z" />
    <glyph glyph-name="quoteleft" unicode="&#x2018;" horiz-adv-x="694" 
d="M125 766v111l172 639h369l-148 -750h-393z" />
    <glyph glyph-name="quoteright" unicode="&#x2019;" horiz-adv-x="694" 
d="M569 1516v-111l-172 -639h-368l147 750h393z" />
    <glyph glyph-name="quotesinglbase" unicode="&#x201a;" horiz-adv-x="655" 
d="M530 426v-111l-172 -639h-368l147 750h393z" />
    <glyph glyph-name="quotedblleft" unicode="&#x201c;" horiz-adv-x="1288" 
d="M719 766v111l172 639h369l-148 -750h-393zM125 766v111l172 639h369l-148 -750h-393z" />
    <glyph glyph-name="quotedblright" unicode="&#x201d;" horiz-adv-x="1292" 
d="M1167 1516v-111l-172 -639h-368l147 750h393zM29 766l147 750h393v-111l-172 -639h-368z" />
    <glyph glyph-name="quotedblbase" unicode="&#x201e;" horiz-adv-x="1253" 
d="M1128 426v-111l-172 -639h-368l147 750h393zM-10 -324l147 750h393v-111l-172 -639h-368z" />
    <glyph glyph-name="dagger" unicode="&#x2020;" horiz-adv-x="1249" 
d="M811 1495l-20 -422l364 8v-327l-367 8l23 -1090h-373l23 1090l-367 -8v327l365 -8l-21 422h373z" />
    <glyph glyph-name="daggerdbl" unicode="&#x2021;" horiz-adv-x="1249" 
d="M811 1495l-20 -422l364 8v-327l-369 8v-356l369 8v-328l-364 8l20 -422h-373l21 422l-365 -8v328l369 -8v356l-369 -8v327l365 -8l-21 422h373z" />
    <glyph glyph-name="bullet" unicode="&#x2022;" horiz-adv-x="802" 
d="M401 391q-110 0 -188 78t-78 188t78 188.5t188 78.5q109 0 188 -78.5t79 -188.5t-79 -188t-188 -78z" />
    <glyph glyph-name="ellipsis" unicode="&#x2026;" horiz-adv-x="1884" 
d="M328 -29q-101 0 -173.5 72.5t-72.5 173.5t72.5 173.5t173.5 72.5t173 -72.5t72 -173.5t-72 -173.5t-173 -72.5zM696 217q0 101 72.5 173.5t173.5 72.5t173.5 -72.5t72.5 -173.5t-72.5 -173.5t-173.5 -72.5t-173.5 72.5t-72.5 173.5zM1311 217q0 101 72 173.5t173 72.5
t173.5 -72.5t72.5 -173.5t-72.5 -173.5t-173.5 -72.5t-173 72.5t-72 173.5z" />
    <glyph glyph-name="perthousand" unicode="&#x2030;" horiz-adv-x="2822" 
d="M2349 745q196 0 308 -105t112 -282q0 -175 -112 -281t-308 -106q-185 0 -292 106t-107 281q0 176 106.5 281.5t292.5 105.5zM53 1137q0 176 107 281.5t293 105.5q196 0 307.5 -105t111.5 -282q0 -176 -111.5 -281.5t-307.5 -105.5q-185 0 -292.5 106t-107.5 281zM264 0
l1039 1495h354l-1039 -1495h-354zM344 1137q0 -133 109 -133q108 0 108 133t-108 133q-109 0 -109 -133zM1049 358q0 176 106.5 281.5t292.5 105.5q196 0 308 -105t112 -282q0 -175 -112 -281t-308 -106q-185 0 -292 106t-107 281zM1339 358q0 -133 109 -133q108 0 108 133
q0 134 -108 134q-109 0 -109 -134zM2241 358q0 -133 108 -133q109 0 109 133q0 134 -109 134q-108 0 -108 -134z" />
    <glyph glyph-name="guilsinglleft" unicode="&#x2039;" horiz-adv-x="970" 
d="M453 1036h448l-342 -483l342 -483h-448l-342 483z" />
    <glyph glyph-name="guilsinglright" unicode="&#x203a;" horiz-adv-x="970" 
d="M518 1036l342 -483l-342 -483h-448l342 483l-342 483h448z" />
    <glyph glyph-name="fraction" unicode="&#x2044;" horiz-adv-x="614" 
d="M942 1413l-915 -1413h-355l916 1413h354z" />
    <glyph glyph-name="Euro" unicode="&#x20ac;" horiz-adv-x="1392" 
d="M971 1524q258 0 415 -127l-126 -289q-127 68 -271 68q-185 0 -266 -121h420l-64 -267h-428v-47q0 -45 2 -65h404l-60 -266h-272q40 -49 108 -70t173 -21q161 0 301 64v-326q-80 -46 -165.5 -66t-230.5 -20q-293 0 -462.5 104.5t-231.5 334.5h-213l62 266h116q-2 20 -2 65
v47h-96l61 267h74q67 244 256.5 356.5t495.5 112.5z" />
    <glyph glyph-name="trademark" unicode="&#x2122;" horiz-adv-x="1822" 
d="M1720 1495v-721h-250v397q-8 -73 -32 -172l-54 -217h-167l-54 217q-25 99 -37 189v-414h-249v721h321q58 -182 102 -350q29 119 99 350h321zM61 1294v201h734v-201h-242v-520h-250v520h-242z" />
    <glyph glyph-name="partialdiff" unicode="&#x2202;" horiz-adv-x="1421" 
d="M715 1524q322 0 468 -170.5t146 -515.5q0 -198 -43.5 -356t-131 -273t-227 -176.5t-323.5 -61.5q-116 0 -215.5 31.5t-177 93t-122 161.5t-44.5 228q0 280 140 425t409 145q113 0 183.5 -46.5t84.5 -142.5q7 190 -49.5 264t-198.5 74q-76 0 -138 -15t-165 -56l-90 276
q230 115 494 115zM518 510q0 -112 32.5 -165.5t111.5 -53.5q80 0 133.5 95t60.5 251q-22 44 -66.5 71t-101.5 27q-87 0 -128.5 -50.5t-41.5 -174.5zM874 573v-10v10z" />
    <glyph glyph-name="emptyset" unicode="&#x2205;" horiz-adv-x="1998" 
d="M999 1561q286 0 508 -175l176 177l162 -162l-176 -176q162 -222 162 -498q0 -174 -67 -329.5t-179.5 -266.5t-265.5 -175.5t-320 -64.5q-275 0 -497 166l-187 -186l-161 162l184 184q-170 226 -170 510q0 174 67 329.5t179 265.5t265 174.5t320 64.5zM397 727
q0 -188 103 -348l850 850q-154 114 -351 114q-119 0 -229.5 -47t-192.5 -128t-131 -196t-49 -245zM662 217q153 -106 337 -106q119 0 229.5 47t193 127.5t131.5 196t49 245.5q0 185 -97 334z" />
    <glyph glyph-name="product" unicode="&#x220f;" horiz-adv-x="1818" 
d="M1737 1495v-389h-205v-1352h-459v1352h-328v-1352h-458v1352h-205v389h1655z" />
    <glyph glyph-name="summation" unicode="&#x2211;" horiz-adv-x="1521" 
d="M1382 1495v-389h-649l486 -477l-492 -465h709v-389h-1370v311l606 549l-576 528v332h1286z" />
    <glyph glyph-name="minus" unicode="&#x2212;" horiz-adv-x="1249" 
d="M1106 793v-287h-963v287h963z" />
    <glyph glyph-name="radical" unicode="&#x221a;" horiz-adv-x="1519" 
d="M1712 1782l-668 -2110h-581l-189 615h-260v348h600l150 -492l485 1639h463z" />
    <glyph glyph-name="infinity" unicode="&#x221e;" horiz-adv-x="2369" 
d="M82 651q0 250 161 406.5t412 156.5q170 0 302 -65t241 -199q200 264 516 264q161 0 291.5 -70.5t206.5 -199.5t76 -293q0 -250 -161.5 -406.5t-412.5 -156.5q-170 0 -302 65t-241 199q-200 -264 -516 -264q-161 0 -291.5 70.5t-206 199.5t-75.5 293zM492 651
q0 -72 31.5 -120.5t74.5 -67.5t92 -19q65 0 133.5 50.5t110.5 156.5q-116 207 -244 207q-34 0 -67.5 -11t-63.5 -34t-48.5 -65t-18.5 -97zM1436 651q116 -207 243 -207q34 0 67.5 11t64 34t49 65t18.5 97q0 54 -18 96t-48 65t-63.5 34.5t-69.5 11.5q-65 0 -133 -50.5
t-110 -156.5z" />
    <glyph glyph-name="integral" unicode="&#x222b;" horiz-adv-x="1357" 
d="M1022 1524q145 0 274 -29v-389q-65 16 -184 16q-67 0 -92.5 -24t-36.5 -86l-168 -928q-40 -228 -148 -334t-311 -106q-178 0 -295 24v389q64 -12 185 -12q62 0 90 25.5t39 85.5l166 919q14 76 30 133t41.5 110.5t61 89.5t84 63t114.5 40t150 13z" />
    <glyph glyph-name="approxequal" unicode="&#x2248;" horiz-adv-x="1249" 
d="M369 1053q50 0 97.5 -11.5t145.5 -46.5q146 -53 211 -53q35 0 52.5 20t46.5 95l237 -74q-41 -111 -70 -172.5t-61.5 -97.5t-64 -46t-82.5 -10q-50 0 -98 11.5t-146 46.5q-146 53 -211 53q-34 0 -51.5 -20t-46.5 -95l-238 74q41 110 70 172.5t62 98t64.5 45.5t82.5 10z
M90 215q41 110 70 172.5t62 98t64.5 45.5t82.5 10q50 0 97.5 -11.5t145.5 -46.5q146 -53 211 -53q35 0 52.5 20t46.5 95l237 -74q-41 -111 -70 -172.5t-61.5 -97.5t-64 -46t-82.5 -10q-50 0 -98 11.5t-146 46.5q-146 53 -211 53q-34 0 -51.5 -20t-46.5 -95z" />
    <glyph glyph-name="notequal" unicode="&#x2260;" horiz-adv-x="1249" 
d="M1026 1253l-92 -225h182v-287h-299l-76 -184h375v-287h-491l-93 -225h-317l92 225h-174v287h291l76 184h-367v287h483l93 225h317z" />
    <glyph glyph-name="lessequal" unicode="&#x2264;" horiz-adv-x="1249" 
d="M1085 1167v-309l-524 -98l524 -109v-303l-901 250v320zM184 0v287h901v-287h-901z" />
    <glyph glyph-name="greaterequal" unicode="&#x2265;" horiz-adv-x="1249" 
d="M164 348v309l524 99l-524 108v303l901 -249v-320zM164 0v287h901v-287h-901z" />
    <glyph glyph-name="lozenge" unicode="&#x25ca;" horiz-adv-x="1339" 
d="M887 1495l383 -747l-383 -748h-434l-383 748l383 747h434zM401 748l269 -537l268 537l-268 536z" />
    <glyph glyph-name="zero.prop" horiz-adv-x="1392" 
d="M696 1126q-61 0 -94 -28.5t-50 -111t-17 -238.5q0 -155 17 -238t50 -112t94 -29t94 29t50.5 112t17.5 238q0 156 -17.5 238.5t-50.5 111t-94 28.5zM63 748q0 190 34 330.5t108 242t196.5 152.5t294.5 51t294.5 -51t196.5 -152.5t108 -242t34 -330.5q0 -189 -34 -329.5
t-108 -242.5t-196.5 -153.5t-294.5 -51.5t-294.5 51.5t-196.5 153.5t-108 242.5t-34 329.5z" />
    <glyph glyph-name="one.prop" horiz-adv-x="1142" 
d="M958 1495v-1495h-458v936h-396v246l416 313h438z" />
    <glyph glyph-name="two.prop" horiz-adv-x="1351" 
d="M709 1524q261 0 414 -130.5t153 -349.5q0 -120 -45 -217t-163 -204t-327 -232l-71 -43h592v-348h-1162v426l217 135q212 132 311 204t138 123.5t39 110.5q0 69 -33.5 98t-99.5 29q-61 0 -99 -34.5t-41 -108.5h-450q6 269 165.5 405t461.5 136z" />
    <glyph glyph-name="three.prop" horiz-adv-x="1351" 
d="M680 1524q129 0 235 -25.5t184.5 -75.5t121.5 -131t43 -186q0 -122 -76 -212.5t-211 -137.5q293 -76 293 -357q0 -214 -157.5 -321t-424.5 -107q-297 0 -449 114.5t-169 385.5h450q13 -123 144 -123q69 0 102 26.5t33 88.5q0 120 -203 123l-162 2v323l162 2
q99 2 148 29.5t49 95.5q0 109 -127 109q-114 0 -121 -123h-451q1 108 33.5 196.5t100.5 157.5t183 107.5t269 38.5z" />
    <glyph glyph-name="four.prop" horiz-adv-x="1351" 
d="M635 1495h491v-770h185v-389h-185v-336h-458v336h-631v407zM420 725h248v307z" />
    <glyph glyph-name="five.prop" horiz-adv-x="1351" 
d="M1217 1495v-389h-629l-33 -277q83 170 301 170q203 0 322.5 -131t119.5 -356q0 -167 -76.5 -290.5t-211 -187t-308.5 -63.5q-308 0 -461.5 115.5t-160.5 364.5h450q6 -49 42.5 -80t99.5 -31q68 0 111.5 45t43.5 115q0 69 -44 115.5t-111 46.5q-59 0 -93.5 -29.5
t-54.5 -87.5h-432l101 950h1024z" />
    <glyph glyph-name="six.prop" horiz-adv-x="1351" 
d="M717 1524q278 0 412 -108.5t153 -352.5h-451q-6 43 -33.5 63.5t-86.5 20.5q-74 0 -113 -76t-43 -266q60 174 301 174q201 0 319.5 -132.5t118.5 -336.5q0 -132 -44.5 -235.5t-123.5 -169.5t-183.5 -100t-227.5 -34q-119 0 -213.5 23t-175 78t-134 142t-83 220t-29.5 307
q0 396 149.5 589.5t487.5 193.5zM567 500q0 -69 36 -110.5t93 -41.5q58 0 96.5 39.5t38.5 104.5q0 67 -34.5 109t-98.5 42q-60 0 -95.5 -38.5t-35.5 -104.5z" />
    <glyph glyph-name="seven.prop" horiz-adv-x="1351" 
d="M1294 1069q-373 -456 -571 -1069h-520q202 574 557 1106h-676v389h1210v-426z" />
    <glyph glyph-name="eight.prop" horiz-adv-x="1351" 
d="M682 1524q256 0 409.5 -114.5t153.5 -299.5q0 -241 -231 -334q55 -21 101.5 -51t88.5 -74.5t66 -108t24 -139.5q0 -142 -81.5 -242t-218 -147t-316.5 -47q-621 0 -621 453q0 69 22.5 128.5t62 102.5t84.5 73t98 50q-205 86 -205 330q0 188 152.5 304t410.5 116zM528 465
q0 -60 41 -90.5t111 -30.5q73 0 109 31.5t36 87.5q0 60 -43 93.5t-106 33.5q-64 0 -106 -33t-42 -92zM563 1042q0 -55 33.5 -80.5t87.5 -25.5q55 0 89 25t34 79q0 50 -34 78.5t-89 28.5q-50 0 -85.5 -30t-35.5 -75z" />
    <glyph glyph-name="nine.prop" horiz-adv-x="1351" 
d="M635 -29q-252 0 -389.5 116t-155.5 366h451q6 -54 33.5 -79.5t87.5 -25.5q75 0 106.5 82.5t28.5 282.5q-25 -100 -101 -148.5t-180 -48.5q-139 0 -244 65t-159 172.5t-54 239.5q0 129 44.5 231.5t123 167.5t183 98.5t227.5 33.5q125 0 221 -23t175.5 -77.5t130.5 -142.5
t78.5 -219.5t27.5 -307.5q0 -142 -20 -257.5t-66 -215t-118 -167t-181 -105.5t-250 -38zM520 999q0 -66 35.5 -106.5t97.5 -40.5q61 0 96 40t35 103q0 70 -36 111t-93 41q-59 0 -97 -39t-38 -109z" />
    <glyph glyph-name="colon.case" horiz-adv-x="655" 
d="M328 115q-101 0 -173.5 72t-72.5 173t72.5 173.5t173.5 72.5t173 -72.5t72 -173.5t-72 -173t-173 -72zM82 1032q0 101 72.5 173.5t173.5 72.5t173 -72.5t72 -173.5t-72 -173.5t-173 -72.5t-173.5 72.5t-72.5 173.5z" />
    <glyph glyph-name="semicolon.case" horiz-adv-x="655" 
d="M328 786q-101 0 -173.5 72.5t-72.5 173.5t72.5 173.5t173.5 72.5t173 -72.5t72 -173.5t-72 -173.5t-173 -72.5zM-10 -180l147 749h393v-110l-172 -639h-368z" />
    <glyph glyph-name="hyphen.case" horiz-adv-x="745" 
d="M680 944v-389h-614v389h614z" />
    <glyph glyph-name="endash.case" horiz-adv-x="1126" 
d="M942 944v-389h-758v389h758z" />
    <glyph glyph-name="emdash.case" horiz-adv-x="2048" 
d="M1864 944v-389h-1680v389h1680z" />
    <glyph glyph-name="parenleft.case" horiz-adv-x="798" 
d="M743 1638q-278 -478 -278 -921q0 -444 278 -922h-385q-140 228 -201 446t-61 476t61 475.5t201 445.5h385z" />
    <glyph glyph-name="parenright.case" horiz-adv-x="798" 
d="M440 1638q140 -228 201 -445.5t61 -475.5t-61 -476t-201 -446h-385q279 480 279 922q0 441 -279 921h385z" />
    <glyph glyph-name="braceleft.case" horiz-adv-x="901" 
d="M588 -184q-161 0 -260 60t-99 177q0 80 29 264q18 123 18 185q0 22 -7.5 37.5t-27 29t-58 20t-95.5 5.5v246q57 -1 95.5 5.5t58 20t27 29t7.5 37.5q0 61 -18 184q-29 184 -29 264q0 117 99 177.5t260 60.5h248v-287h-134q-78 0 -104.5 -11.5t-26.5 -49.5q0 -16 19 -133
q26 -171 26 -211q0 -87 -35.5 -136t-119.5 -67q83 -21 119 -74t36 -141q0 -62 -26 -211q-19 -117 -19 -133q0 -39 26.5 -50.5t104.5 -11.5h134v-286h-248z" />
    <glyph glyph-name="braceright.case" horiz-adv-x="901" 
d="M313 1618q161 0 260 -60.5t99 -177.5q0 -80 -29 -264q-18 -123 -18 -184q0 -22 7.5 -37.5t27 -29t58 -20t95.5 -5.5v-246q-57 1 -95.5 -5.5t-58 -20t-27 -29t-7.5 -37.5q0 -62 18 -185q29 -184 29 -264q0 -117 -99 -177t-260 -60h-247v286h133q78 0 104.5 11.5t26.5 50.5
q0 16 -19 133q-26 171 -26 211q0 87 35.5 136t119.5 67q-83 21 -119 74t-36 141q0 62 26 211q19 117 19 133q0 38 -26.5 49.5t-104.5 11.5h-133v287h247z" />
    <glyph glyph-name="bracketleft.case" horiz-adv-x="927" 
d="M205 1618h661v-287h-334v-1229h334v-286h-661v1802z" />
    <glyph glyph-name="bracketright.case" horiz-adv-x="927" 
d="M723 1618v-1802h-662v286h334v1229h-334v287h662z" />
    <glyph glyph-name="guillemotleft.case" horiz-adv-x="1605" 
d="M1087 1180h449l-342 -484l342 -483h-449l-342 483zM111 696l342 484h448l-342 -484l342 -483h-448z" />
    <glyph glyph-name="guillemotright.case" horiz-adv-x="1605" 
d="M518 1180l342 -484l-342 -483h-448l342 483l-342 484h448zM705 213l342 483l-342 484h448l342 -484l-342 -483h-448z" />
    <glyph glyph-name="guilsinglleft.case" horiz-adv-x="970" 
d="M453 1180h448l-342 -484l342 -483h-448l-342 483z" />
    <glyph glyph-name="guilsinglright.case" horiz-adv-x="970" 
d="M518 1180l342 -484l-342 -483h-448l342 483l-342 484h448z" />
    </font>
</defs>
</svg>
